<svg width="100" height="100" viewBox="0 0 100 100" fill="none" xmlns="http://www.w3.org/2000/svg">
<path d="M53.73 4H51.56V6.17H53.73V4Z" fill="#2D2511"/>
<path d="M51.56 6.17004H49.39V8.34004H51.56V6.17004Z" fill="#2D2511"/>
<path d="M51.56 4H49.39V6.17H51.56V4Z" fill="#2D2511"/>
<path d="M55.9 4H53.73V6.17H55.9V4Z" fill="#2D2511"/>
<path d="M58.07 6.17004H55.9V8.34004H58.07V6.17004Z" fill="#2D2511"/>
<path d="M58.07 4H55.9V6.17H58.07V4Z" fill="#2D2511"/>
<path d="M51.56 6.17004H49.39V8.34004H51.56V6.17004Z" fill="#2D2511"/>
<path d="M49.39 8.33997H47.22V10.51H49.39V8.33997Z" fill="#2D2511"/>
<path d="M49.39 6.17004H47.22V8.34004H49.39V6.17004Z" fill="#2D2511"/>
<path d="M58.07 8.33997H55.9V10.51H58.07V8.33997Z" fill="#2D2511"/>
<path d="M49.39 8.33997H47.22V10.51H49.39V8.33997Z" fill="#2D2511"/>
<path d="M47.22 10.51H45.05V12.68H47.22V10.51Z" fill="#2D2511"/>
<path d="M47.22 8.33997H45.05V10.51H47.22V8.33997Z" fill="#2D2511"/>
<path d="M58.07 8.33997H55.9V10.51H58.07V8.33997Z" fill="#2D2511"/>
<path d="M60.24 10.51H58.07V12.68H60.24V10.51Z" fill="#2D2511"/>
<path d="M60.24 8.33997H58.07V10.51H60.24V8.33997Z" fill="#2D2511"/>
<path d="M47.22 12.6801H45.05V14.8501H47.22V12.6801Z" fill="#2D2511"/>
<path d="M60.24 12.6801H58.07V14.8501H60.24V12.6801Z" fill="#2D2511"/>
<path d="M47.22 12.6801H45.05V14.8501H47.22V12.6801Z" fill="#2D2511"/>
<path d="M45.06 14.85H42.89V17.02H45.06V14.85Z" fill="#2D2511"/>
<path d="M45.06 12.6801H42.89V14.8501H45.06V12.6801Z" fill="#2D2511"/>
<path d="M60.24 14.85H58.07V17.02H60.24V14.85Z" fill="#2D2511"/>
<path d="M84.11 12.6801H81.94V14.8501H84.11V12.6801Z" fill="#2D2511"/>
<path d="M81.94 14.85H79.77V17.02H81.94V14.85Z" fill="#2D2511"/>
<path d="M81.94 12.6801H79.77V14.8501H81.94V12.6801Z" fill="#2D2511"/>
<path d="M86.28 12.6801H84.11V14.8501H86.28V12.6801Z" fill="#2D2511"/>
<path d="M88.45 12.6801H86.28V14.8501H88.45V12.6801Z" fill="#2D2511"/>
<path d="M90.61 14.85H88.44V17.02H90.61V14.85Z" fill="#2D2511"/>
<path d="M90.61 12.6801H88.44V14.8501H90.61V12.6801Z" fill="#2D2511"/>
<path d="M45.06 17.02H42.89V19.19H45.06V17.02Z" fill="#2D2511"/>
<path d="M60.24 17.02H58.07V19.19H60.24V17.02Z" fill="#2D2511"/>
<path d="M79.77 14.85H77.6V17.02H79.77V14.85Z" fill="#2D2511"/>
<path d="M77.6001 17.02H75.4301V19.19H77.6001V17.02Z" fill="#2D2511"/>
<path d="M77.6001 14.85H75.4301V17.02H77.6001V14.85Z" fill="#2D2511"/>
<path d="M81.94 14.85H79.77V17.02H81.94V14.85Z" fill="#2D2511"/>
<path d="M90.61 17.02H88.44V19.19H90.61V17.02Z" fill="#2D2511"/>
<path d="M45.06 17.02H42.89V19.19H45.06V17.02Z" fill="#2D2511"/>
<path d="M42.89 19.1901H40.72V21.3601H42.89V19.1901Z" fill="#2D2511"/>
<path d="M42.89 17.02H40.72V19.19H42.89V17.02Z" fill="#2D2511"/>
<path d="M60.24 19.1901H58.07V21.3601H60.24V19.1901Z" fill="#2D2511"/>
<path d="M75.43 17.02H73.26V19.19H75.43V17.02Z" fill="#2D2511"/>
<path d="M73.26 19.1901H71.09V21.3601H73.26V19.1901Z" fill="#2D2511"/>
<path d="M73.26 17.02H71.09V19.19H73.26V17.02Z" fill="#2D2511"/>
<path d="M77.6001 17.02H75.4301V19.19H77.6001V17.02Z" fill="#2D2511"/>
<path d="M88.45 21.36H86.28V23.53H88.45V21.36Z" fill="#2D2511"/>
<path d="M90.61 19.1901H88.44V21.3601H90.61V19.1901Z" fill="#2D2511"/>
<path d="M90.61 21.36H88.44V23.53H90.61V21.36Z" fill="#2D2511"/>
<path d="M42.89 21.36H40.72V23.53H42.89V21.36Z" fill="#2D2511"/>
<path d="M60.24 19.1901H58.07V21.3601H60.24V19.1901Z" fill="#2D2511"/>
<path d="M62.4101 21.36H60.2401V23.53H62.4101V21.36Z" fill="#2D2511"/>
<path d="M62.4101 19.1901H60.2401V21.3601H62.4101V19.1901Z" fill="#2D2511"/>
<path d="M71.09 19.1901H68.92V21.3601H71.09V19.1901Z" fill="#2D2511"/>
<path d="M68.9201 21.36H66.7501V23.53H68.9201V21.36Z" fill="#2D2511"/>
<path d="M68.9201 19.1901H66.7501V21.3601H68.9201V19.1901Z" fill="#2D2511"/>
<path d="M73.26 19.1901H71.09V21.3601H73.26V19.1901Z" fill="#2D2511"/>
<path d="M86.28 23.53H84.11V25.7H86.28V23.53Z" fill="#2D2511"/>
<path d="M88.45 21.36H86.28V23.53H88.45V21.36Z" fill="#2D2511"/>
<path d="M88.45 23.53H86.28V25.7H88.45V23.53Z" fill="#2D2511"/>
<path d="M12.51 21.36H10.34V23.53H12.51V21.36Z" fill="#2D2511"/>
<path d="M10.34 23.53H8.17004V25.7H10.34V23.53Z" fill="#2D2511"/>
<path d="M10.34 21.36H8.17004V23.53H10.34V21.36Z" fill="#2D2511"/>
<path d="M14.68 21.36H12.51V23.53H14.68V21.36Z" fill="#2D2511"/>
<path d="M16.8501 21.36H14.6801V23.53H16.8501V21.36Z" fill="#2D2511"/>
<path d="M19.02 21.36H16.85V23.53H19.02V21.36Z" fill="#2D2511"/>
<path d="M21.19 21.36H19.02V23.53H21.19V21.36Z" fill="#2D2511"/>
<path d="M23.36 21.36H21.19V23.53H23.36V21.36Z" fill="#2D2511"/>
<path d="M25.53 23.53H23.36V25.7H25.53V23.53Z" fill="#2D2511"/>
<path d="M25.53 21.36H23.36V23.53H25.53V21.36Z" fill="#2D2511"/>
<path d="M42.89 21.36H40.72V23.53H42.89V21.36Z" fill="#2D2511"/>
<path d="M40.72 23.53H38.55V25.7H40.72V23.53Z" fill="#2D2511"/>
<path d="M40.72 21.36H38.55V23.53H40.72V21.36Z" fill="#2D2511"/>
<path d="M62.4101 23.53H60.2401V25.7H62.4101V23.53Z" fill="#2D2511"/>
<path d="M68.9201 21.36H66.7501V23.53H68.9201V21.36Z" fill="#2D2511"/>
<path d="M66.75 23.53H64.58V25.7H66.75V23.53Z" fill="#2D2511"/>
<path d="M66.75 21.36H64.58V23.53H66.75V21.36Z" fill="#2D2511"/>
<path d="M86.28 23.53H84.11V25.7H86.28V23.53Z" fill="#2D2511"/>
<path d="M12.51 27.87H10.34V30.04H12.51V27.87Z" fill="#2D2511"/>
<path d="M10.34 25.7001H8.17004V27.8701H10.34V25.7001Z" fill="#2D2511"/>
<path d="M10.34 27.87H8.17004V30.04H10.34V27.87Z" fill="#2D2511"/>
<path d="M25.53 23.53H23.36V25.7H25.53V23.53Z" fill="#2D2511"/>
<path d="M27.7 23.53H25.53V25.7H27.7V23.53Z" fill="#2D2511"/>
<path d="M29.87 23.53H27.7V25.7H29.87V23.53Z" fill="#2D2511"/>
<path d="M32.0401 25.7001H29.8701V27.8701H32.0401V25.7001Z" fill="#2D2511"/>
<path d="M32.0401 23.53H29.8701V25.7H32.0401V23.53Z" fill="#2D2511"/>
<path d="M40.72 25.7001H38.55V27.8701H40.72V25.7001Z" fill="#2D2511"/>
<path d="M62.4101 25.7001H60.2401V27.8701H62.4101V25.7001Z" fill="#2D2511"/>
<path d="M64.58 23.53H62.41V25.7H64.58V23.53Z" fill="#2D2511"/>
<path d="M62.4101 25.7001H60.2401V27.8701H62.4101V25.7001Z" fill="#2D2511"/>
<path d="M62.4101 23.53H60.2401V25.7H62.4101V23.53Z" fill="#2D2511"/>
<path d="M66.75 23.53H64.58V25.7H66.75V23.53Z" fill="#2D2511"/>
<path d="M84.11 27.87H81.94V30.04H84.11V27.87Z" fill="#2D2511"/>
<path d="M86.28 25.7001H84.11V27.8701H86.28V25.7001Z" fill="#2D2511"/>
<path d="M86.28 27.87H84.11V30.04H86.28V27.87Z" fill="#2D2511"/>
<path d="M12.51 27.87H10.34V30.04H12.51V27.87Z" fill="#2D2511"/>
<path d="M32.0401 25.7001H29.8701V27.8701H32.0401V25.7001Z" fill="#2D2511"/>
<path d="M34.21 25.7001H32.04V27.8701H34.21V25.7001Z" fill="#2D2511"/>
<path d="M36.38 25.7001H34.21V27.8701H36.38V25.7001Z" fill="#2D2511"/>
<path d="M38.55 27.87H36.38V30.04H38.55V27.87Z" fill="#2D2511"/>
<path d="M38.55 25.7001H36.38V27.8701H38.55V25.7001Z" fill="#2D2511"/>
<path d="M40.72 25.7001H38.55V27.8701H40.72V25.7001Z" fill="#2D2511"/>
<path d="M38.55 27.87H36.38V30.04H38.55V27.87Z" fill="#2D2511"/>
<path d="M38.55 25.7001H36.38V27.8701H38.55V25.7001Z" fill="#2D2511"/>
<path d="M62.4101 25.7001H60.2401V27.8701H62.4101V25.7001Z" fill="#2D2511"/>
<path d="M81.94 30.04H79.77V32.21H81.94V30.04Z" fill="#2D2511"/>
<path d="M84.11 27.87H81.94V30.04H84.11V27.87Z" fill="#2D2511"/>
<path d="M84.11 30.04H81.94V32.21H84.11V30.04Z" fill="#2D2511"/>
<path d="M14.68 32.21H12.51V34.38H14.68V32.21Z" fill="#2D2511"/>
<path d="M12.51 30.04H10.34V32.21H12.51V30.04Z" fill="#2D2511"/>
<path d="M12.51 32.21H10.34V34.38H12.51V32.21Z" fill="#2D2511"/>
<path d="M38.55 27.87H36.38V30.04H38.55V27.87Z" fill="#2D2511"/>
<path d="M81.94 30.04H79.77V32.21H81.94V30.04Z" fill="#2D2511"/>
<path d="M16.8501 34.38H14.6801V36.55H16.8501V34.38Z" fill="#2D2511"/>
<path d="M14.68 32.21H12.51V34.38H14.68V32.21Z" fill="#2D2511"/>
<path d="M14.68 34.38H12.51V36.55H14.68V34.38Z" fill="#2D2511"/>
<path d="M79.77 34.38H77.6V36.55H79.77V34.38Z" fill="#2D2511"/>
<path d="M81.94 32.21H79.77V34.38H81.94V32.21Z" fill="#2D2511"/>
<path d="M81.94 34.38H79.77V36.55H81.94V34.38Z" fill="#2D2511"/>
<path d="M19.02 36.55H16.85V38.7201H19.02V36.55Z" fill="#2D2511"/>
<path d="M16.8501 34.38H14.6801V36.55H16.8501V34.38Z" fill="#2D2511"/>
<path d="M16.8501 36.55H14.6801V38.7201H16.8501V36.55Z" fill="#2D2511"/>
<path d="M77.6001 36.55H75.4301V38.7201H77.6001V36.55Z" fill="#2D2511"/>
<path d="M79.77 34.38H77.6V36.55H79.77V34.38Z" fill="#2D2511"/>
<path d="M79.77 36.55H77.6V38.7201H79.77V36.55Z" fill="#2D2511"/>
<path d="M21.19 38.72H19.02V40.89H21.19V38.72Z" fill="#2D2511"/>
<path d="M19.02 36.55H16.85V38.7201H19.02V36.55Z" fill="#2D2511"/>
<path d="M19.02 38.72H16.85V40.89H19.02V38.72Z" fill="#2D2511"/>
<path d="M75.43 38.72H73.26V40.89H75.43V38.72Z" fill="#2D2511"/>
<path d="M77.6001 36.55H75.4301V38.7201H77.6001V36.55Z" fill="#2D2511"/>
<path d="M77.6001 38.72H75.4301V40.89H77.6001V38.72Z" fill="#2D2511"/>
<path d="M23.36 40.89H21.19V43.06H23.36V40.89Z" fill="#2D2511"/>
<path d="M21.19 38.72H19.02V40.89H21.19V38.72Z" fill="#2D2511"/>
<path d="M21.19 40.89H19.02V43.06H21.19V40.89Z" fill="#2D2511"/>
<path d="M55.9 40.89H53.73V43.06H55.9V40.89Z" fill="#2D2511"/>
<path d="M75.43 38.72H73.26V40.89H75.43V38.72Z" fill="#2D2511"/>
<path d="M25.53 43.0601H23.36V45.2301H25.53V43.0601Z" fill="#2D2511"/>
<path d="M23.36 40.89H21.19V43.06H23.36V40.89Z" fill="#2D2511"/>
<path d="M23.36 43.0601H21.19V45.2301H23.36V43.0601Z" fill="#2D2511"/>
<path d="M55.9 40.89H53.73V43.06H55.9V40.89Z" fill="#2D2511"/>
<path d="M55.9 40.89H53.73V43.06H55.9V40.89Z" fill="#2D2511"/>
<path d="M75.43 40.89H73.26V43.06H75.43V40.89Z" fill="#2D2511"/>
<path d="M25.53 43.0601H23.36V45.2301H25.53V43.0601Z" fill="#2D2511"/>
<path d="M36.38 45.22H34.21V47.39H36.38V45.22Z" fill="#2D2511"/>
<path d="M38.55 45.22H36.38V47.39H38.55V45.22Z" fill="#2D2511"/>
<path d="M53.73 45.22H51.56V47.39H53.73V45.22Z" fill="#2D2511"/>
<path d="M55.9 43.0601H53.73V45.2301H55.9V43.0601Z" fill="#2D2511"/>
<path d="M55.9 45.22H53.73V47.39H55.9V45.22Z" fill="#2D2511"/>
<path d="M58.07 45.22H55.9V47.39H58.07V45.22Z" fill="#2D2511"/>
<path d="M55.9 43.0601H53.73V45.2301H55.9V43.0601Z" fill="#2D2511"/>
<path d="M55.9 45.22H53.73V47.39H55.9V45.22Z" fill="#2D2511"/>
<path d="M75.43 40.89H73.26V43.06H75.43V40.89Z" fill="#2D2511"/>
<path d="M77.6001 40.89H75.4301V43.06H77.6001V40.89Z" fill="#2D2511"/>
<path d="M79.77 43.0601H77.6V45.2301H79.77V43.0601Z" fill="#2D2511"/>
<path d="M79.77 40.89H77.6V43.06H79.77V40.89Z" fill="#2D2511"/>
<path d="M25.53 43.0601H23.36V45.2301H25.53V43.0601Z" fill="#2D2511"/>
<path d="M23.36 45.22H21.19V47.39H23.36V45.22Z" fill="#2D2511"/>
<path d="M23.36 43.0601H21.19V45.2301H23.36V43.0601Z" fill="#2D2511"/>
<path d="M36.38 45.22H34.21V47.39H36.38V45.22Z" fill="#2D2511"/>
<path d="M38.55 45.22H36.38V47.39H38.55V45.22Z" fill="#2D2511"/>
<path d="M53.73 45.22H51.56V47.39H53.73V45.22Z" fill="#2D2511"/>
<path d="M60.24 47.39H58.07V49.56H60.24V47.39Z" fill="#2D2511"/>
<path d="M58.07 45.22H55.9V47.39H58.07V45.22Z" fill="#2D2511"/>
<path d="M58.07 47.39H55.9V49.56H58.07V47.39Z" fill="#2D2511"/>
<path d="M62.4101 47.39H60.2401V49.56H62.4101V47.39Z" fill="#2D2511"/>
<path d="M79.77 43.0601H77.6V45.2301H79.77V43.0601Z" fill="#2D2511"/>
<path d="M81.94 43.0601H79.77V45.2301H81.94V43.0601Z" fill="#2D2511"/>
<path d="M84.11 43.0601H81.94V45.2301H84.11V43.0601Z" fill="#2D2511"/>
<path d="M86.28 43.0601H84.11V45.2301H86.28V43.0601Z" fill="#2D2511"/>
<path d="M88.45 43.0601H86.28V45.2301H88.45V43.0601Z" fill="#2D2511"/>
<path d="M90.61 43.0601H88.44V45.2301H90.61V43.0601Z" fill="#2D2511"/>
<path d="M92.78 43.0601H90.61V45.2301H92.78V43.0601Z" fill="#2D2511"/>
<path d="M94.95 43.0601H92.78V45.2301H94.95V43.0601Z" fill="#2D2511"/>
<path d="M97.12 45.22H94.95V47.39H97.12V45.22Z" fill="#2D2511"/>
<path d="M97.12 43.0601H94.95V45.2301H97.12V43.0601Z" fill="#2D2511"/>
<path d="M21.19 45.22H19.02V47.39H21.19V45.22Z" fill="#2D2511"/>
<path d="M19.02 47.39H16.85V49.56H19.02V47.39Z" fill="#2D2511"/>
<path d="M19.02 45.22H16.85V47.39H19.02V45.22Z" fill="#2D2511"/>
<path d="M23.36 45.22H21.19V47.39H23.36V45.22Z" fill="#2D2511"/>
<path d="M36.38 47.39H34.21V49.56H36.38V47.39Z" fill="#2D2511"/>
<path d="M40.72 49.5601H38.55V51.7301H40.72V49.5601Z" fill="#2D2511"/>
<path d="M38.55 47.39H36.38V49.56H38.55V47.39Z" fill="#2D2511"/>
<path d="M38.55 49.5601H36.38V51.7301H38.55V49.5601Z" fill="#2D2511"/>
<path d="M42.89 49.5601H40.72V51.7301H42.89V49.5601Z" fill="#2D2511"/>
<path d="M53.73 45.22H51.56V47.39H53.73V45.22Z" fill="#2D2511"/>
<path d="M55.9 47.39H53.73V49.56H55.9V47.39Z" fill="#2D2511"/>
<path d="M55.9 45.22H53.73V47.39H55.9V45.22Z" fill="#2D2511"/>
<path d="M62.4101 47.39H60.2401V49.56H62.4101V47.39Z" fill="#2D2511"/>
<path d="M97.12 45.22H94.95V47.39H97.12V45.22Z" fill="#2D2511"/>
<path d="M97.12 49.5601H94.95V51.7301H97.12V49.5601Z" fill="#2D2511"/>
<path d="M99.2901 47.39H97.1201V49.56H99.2901V47.39Z" fill="#2D2511"/>
<path d="M99.2901 45.22H97.1201V47.39H99.2901V45.22Z" fill="#2D2511"/>
<path d="M99.2901 49.5601H97.1201V51.7301H99.2901V49.5601Z" fill="#2D2511"/>
<path d="M16.8501 47.39H14.6801V49.56H16.8501V47.39Z" fill="#2D2511"/>
<path d="M14.68 49.5601H12.51V51.7301H14.68V49.5601Z" fill="#2D2511"/>
<path d="M14.68 47.39H12.51V49.56H14.68V47.39Z" fill="#2D2511"/>
<path d="M19.02 47.39H16.85V49.56H19.02V47.39Z" fill="#2D2511"/>
<path d="M36.38 49.5601H34.21V51.7301H36.38V49.5601Z" fill="#2D2511"/>
<path d="M42.89 49.5601H40.72V51.7301H42.89V49.5601Z" fill="#2D2511"/>
<path d="M55.9 49.5601H53.73V51.7301H55.9V49.5601Z" fill="#2D2511"/>
<path d="M62.4101 47.39H60.2401V49.56H62.4101V47.39Z" fill="#2D2511"/>
<path d="M60.24 49.5601H58.07V51.7301H60.24V49.5601Z" fill="#2D2511"/>
<path d="M60.24 47.39H58.07V49.56H60.24V47.39Z" fill="#2D2511"/>
<path d="M92.78 51.73H90.61V53.9H92.78V51.73Z" fill="#2D2511"/>
<path d="M94.95 51.73H92.78V53.9H94.95V51.73Z" fill="#2D2511"/>
<path d="M97.12 49.5601H94.95V51.7301H97.12V49.5601Z" fill="#2D2511"/>
<path d="M97.12 51.73H94.95V53.9H97.12V51.73Z" fill="#2D2511"/>
<path d="M12.51 49.5601H10.34V51.7301H12.51V49.5601Z" fill="#2D2511"/>
<path d="M10.34 51.73H8.17004V53.9H10.34V51.73Z" fill="#2D2511"/>
<path d="M10.34 49.5601H8.17004V51.7301H10.34V49.5601Z" fill="#2D2511"/>
<path d="M14.68 49.5601H12.51V51.7301H14.68V49.5601Z" fill="#2D2511"/>
<path d="M36.38 51.73H34.21V53.9H36.38V51.73Z" fill="#2D2511"/>
<path d="M42.89 51.73H40.72V53.9H42.89V51.73Z" fill="#2D2511"/>
<path d="M55.9 49.5601H53.73V51.7301H55.9V49.5601Z" fill="#2D2511"/>
<path d="M58.07 49.5601H55.9V51.7301H58.07V49.5601Z" fill="#2D2511"/>
<path d="M60.24 49.5601H58.07V51.7301H60.24V49.5601Z" fill="#2D2511"/>
<path d="M84.11 53.9H81.94V56.07H84.11V53.9Z" fill="#2D2511"/>
<path d="M86.28 53.9H84.11V56.07H86.28V53.9Z" fill="#2D2511"/>
<path d="M88.45 53.9H86.28V56.07H88.45V53.9Z" fill="#2D2511"/>
<path d="M90.61 53.9H88.44V56.07H90.61V53.9Z" fill="#2D2511"/>
<path d="M92.78 51.73H90.61V53.9H92.78V51.73Z" fill="#2D2511"/>
<path d="M92.78 53.9H90.61V56.07H92.78V53.9Z" fill="#2D2511"/>
<path d="M10.34 51.73H8.17004V53.9H10.34V51.73Z" fill="#2D2511"/>
<path d="M8.17006 53.9H6.00006V56.07H8.17006V53.9Z" fill="#2D2511"/>
<path d="M8.17006 51.73H6.00006V53.9H8.17006V51.73Z" fill="#2D2511"/>
<path d="M36.38 51.73H34.21V53.9H36.38V51.73Z" fill="#2D2511"/>
<path d="M38.55 51.73H36.38V53.9H38.55V51.73Z" fill="#2D2511"/>
<path d="M40.72 51.73H38.55V53.9H40.72V51.73Z" fill="#2D2511"/>
<path d="M42.89 51.73H40.72V53.9H42.89V51.73Z" fill="#2D2511"/>
<path d="M75.43 56.0701H73.26V58.2401H75.43V56.0701Z" fill="#2D2511"/>
<path d="M77.6001 56.0701H75.4301V58.2401H77.6001V56.0701Z" fill="#2D2511"/>
<path d="M79.77 56.0701H77.6V58.2401H79.77V56.0701Z" fill="#2D2511"/>
<path d="M81.94 56.0701H79.77V58.2401H81.94V56.0701Z" fill="#2D2511"/>
<path d="M84.11 53.9H81.94V56.07H84.11V53.9Z" fill="#2D2511"/>
<path d="M84.11 56.0701H81.94V58.2401H84.11V56.0701Z" fill="#2D2511"/>
<path d="M6.00002 53.9H3.83002V56.07H6.00002V53.9Z" fill="#2D2511"/>
<path d="M3.83003 56.0701H1.66003V58.2401H3.83003V56.0701Z" fill="#2D2511"/>
<path d="M3.83003 53.9H1.66003V56.07H3.83003V53.9Z" fill="#2D2511"/>
<path d="M8.17006 53.9H6.00006V56.07H8.17006V53.9Z" fill="#2D2511"/>
<path d="M75.43 56.0701H73.26V58.2401H75.43V56.0701Z" fill="#2D2511"/>
<path d="M3.83003 58.24H1.66003V60.41H3.83003V58.24Z" fill="#2D2511"/>
<path d="M23.36 60.41H21.19V62.58H23.36V60.41Z" fill="#2D2511"/>
<path d="M25.53 60.41H23.36V62.58H25.53V60.41Z" fill="#2D2511"/>
<path d="M27.7 60.41H25.53V62.58H27.7V60.41Z" fill="#2D2511"/>
<path d="M29.87 60.41H27.7V62.58H29.87V60.41Z" fill="#2D2511"/>
<path d="M75.43 56.0701H73.26V58.2401H75.43V56.0701Z" fill="#2D2511"/>
<path d="M77.6001 58.24H75.4301V60.41H77.6001V58.24Z" fill="#2D2511"/>
<path d="M77.6001 56.0701H75.4301V58.2401H77.6001V56.0701Z" fill="#2D2511"/>
<path d="M6.00002 62.58H3.83002V64.75H6.00002V62.58Z" fill="#2D2511"/>
<path d="M3.83003 60.41H1.66003V62.58H3.83003V60.41Z" fill="#2D2511"/>
<path d="M3.83003 62.58H1.66003V64.75H3.83003V62.58Z" fill="#2D2511"/>
<path d="M8.17006 62.58H6.00006V64.75H8.17006V62.58Z" fill="#2D2511"/>
<path d="M10.34 62.58H8.17004V64.75H10.34V62.58Z" fill="#2D2511"/>
<path d="M12.51 62.58H10.34V64.75H12.51V62.58Z" fill="#2D2511"/>
<path d="M14.68 62.58H12.51V64.75H14.68V62.58Z" fill="#2D2511"/>
<path d="M16.8501 62.58H14.6801V64.75H16.8501V62.58Z" fill="#2D2511"/>
<path d="M19.02 62.58H16.85V64.75H19.02V62.58Z" fill="#2D2511"/>
<path d="M21.19 62.58H19.02V64.75H21.19V62.58Z" fill="#2D2511"/>
<path d="M23.36 60.41H21.19V62.58H23.36V60.41Z" fill="#2D2511"/>
<path d="M23.36 62.58H21.19V64.75H23.36V62.58Z" fill="#2D2511"/>
<path d="M29.87 60.41H27.7V62.58H29.87V60.41Z" fill="#2D2511"/>
<path d="M77.6001 58.24H75.4301V60.41H77.6001V58.24Z" fill="#2D2511"/>
<path d="M79.77 60.41H77.6V62.58H79.77V60.41Z" fill="#2D2511"/>
<path d="M79.77 58.24H77.6V60.41H79.77V58.24Z" fill="#2D2511"/>
<path d="M29.87 62.58H27.7V64.75H29.87V62.58Z" fill="#2D2511"/>
<path d="M79.77 62.58H77.6V64.75H79.77V62.58Z" fill="#2D2511"/>
<path d="M29.87 64.75H27.7V66.92H29.87V64.75Z" fill="#2D2511"/>
<path d="M79.77 62.58H77.6V64.75H79.77V62.58Z" fill="#2D2511"/>
<path d="M81.94 64.75H79.77V66.92H81.94V64.75Z" fill="#2D2511"/>
<path d="M81.94 62.58H79.77V64.75H81.94V62.58Z" fill="#2D2511"/>
<path d="M29.87 64.75H27.7V66.92H29.87V64.75Z" fill="#2D2511"/>
<path d="M27.7 66.92H25.53V69.09H27.7V66.92Z" fill="#2D2511"/>
<path d="M27.7 64.75H25.53V66.92H27.7V64.75Z" fill="#2D2511"/>
<path d="M81.94 64.75H79.77V66.92H81.94V64.75Z" fill="#2D2511"/>
<path d="M84.11 66.92H81.94V69.09H84.11V66.92Z" fill="#2D2511"/>
<path d="M84.11 64.75H81.94V66.92H84.11V64.75Z" fill="#2D2511"/>
<path d="M27.7 69.09H25.53V71.26H27.7V69.09Z" fill="#2D2511"/>
<path d="M64.58 71.26H62.41V73.43H64.58V71.26Z" fill="#2D2511"/>
<path d="M66.75 71.26H64.58V73.43H66.75V71.26Z" fill="#2D2511"/>
<path d="M84.11 69.09H81.94V71.26H84.11V69.09Z" fill="#2D2511"/>
<path d="M27.7 69.09H25.53V71.26H27.7V69.09Z" fill="#2D2511"/>
<path d="M25.53 71.26H23.36V73.43H25.53V71.26Z" fill="#2D2511"/>
<path d="M25.53 69.09H23.36V71.26H25.53V69.09Z" fill="#2D2511"/>
<path d="M64.58 71.26H62.41V73.43H64.58V71.26Z" fill="#2D2511"/>
<path d="M68.9201 73.4301H66.7501V75.6001H68.9201V73.4301Z" fill="#2D2511"/>
<path d="M66.75 71.26H64.58V73.43H66.75V71.26Z" fill="#2D2511"/>
<path d="M66.75 73.4301H64.58V75.6001H66.75V73.4301Z" fill="#2D2511"/>
<path d="M71.09 73.4301H68.92V75.6001H71.09V73.4301Z" fill="#2D2511"/>
<path d="M73.26 73.4301H71.09V75.6001H73.26V73.4301Z" fill="#2D2511"/>
<path d="M84.11 69.09H81.94V71.26H84.11V69.09Z" fill="#2D2511"/>
<path d="M86.28 71.26H84.11V73.43H86.28V71.26Z" fill="#2D2511"/>
<path d="M86.28 69.09H84.11V71.26H86.28V69.09Z" fill="#2D2511"/>
<path d="M25.53 73.4301H23.36V75.6001H25.53V73.4301Z" fill="#2D2511"/>
<path d="M64.58 73.4301H62.41V75.6001H64.58V73.4301Z" fill="#2D2511"/>
<path d="M75.43 75.6H73.26V77.77H75.43V75.6Z" fill="#2D2511"/>
<path d="M73.26 73.4301H71.09V75.6001H73.26V73.4301Z" fill="#2D2511"/>
<path d="M73.26 75.6H71.09V77.77H73.26V75.6Z" fill="#2D2511"/>
<path d="M77.6001 75.6H75.4301V77.77H77.6001V75.6Z" fill="#2D2511"/>
<path d="M86.28 73.4301H84.11V75.6001H86.28V73.4301Z" fill="#2D2511"/>
<path d="M25.53 75.6H23.36V77.77H25.53V75.6Z" fill="#2D2511"/>
<path d="M45.06 77.77H42.89V79.94H45.06V77.77Z" fill="#2D2511"/>
<path d="M47.22 77.77H45.05V79.94H47.22V77.77Z" fill="#2D2511"/>
<path d="M49.39 77.77H47.22V79.94H49.39V77.77Z" fill="#2D2511"/>
<path d="M64.58 75.6H62.41V77.77H64.58V75.6Z" fill="#2D2511"/>
<path d="M79.77 77.77H77.6V79.94H79.77V77.77Z" fill="#2D2511"/>
<path d="M77.6001 75.6H75.4301V77.77H77.6001V75.6Z" fill="#2D2511"/>
<path d="M77.6001 77.77H75.4301V79.94H77.6001V77.77Z" fill="#2D2511"/>
<path d="M81.94 77.77H79.77V79.94H81.94V77.77Z" fill="#2D2511"/>
<path d="M84.11 77.77H81.94V79.94H84.11V77.77Z" fill="#2D2511"/>
<path d="M86.28 73.4301H84.11V75.6001H86.28V73.4301Z" fill="#2D2511"/>
<path d="M86.28 77.77H84.11V79.94H86.28V77.77Z" fill="#2D2511"/>
<path d="M88.45 75.6H86.28V77.77H88.45V75.6Z" fill="#2D2511"/>
<path d="M88.45 73.4301H86.28V75.6001H88.45V73.4301Z" fill="#2D2511"/>
<path d="M88.45 77.77H86.28V79.94H88.45V77.77Z" fill="#2D2511"/>
<path d="M25.53 77.77H23.36V79.94H25.53V77.77Z" fill="#2D2511"/>
<path d="M42.89 79.9401H40.72V82.1101H42.89V79.9401Z" fill="#2D2511"/>
<path d="M45.06 77.77H42.89V79.94H45.06V77.77Z" fill="#2D2511"/>
<path d="M45.06 79.9401H42.89V82.1101H45.06V79.9401Z" fill="#2D2511"/>
<path d="M49.39 77.77H47.22V79.94H49.39V77.77Z" fill="#2D2511"/>
<path d="M64.58 77.77H62.41V79.94H64.58V77.77Z" fill="#2D2511"/>
<path d="M25.53 77.77H23.36V79.94H25.53V77.77Z" fill="#2D2511"/>
<path d="M23.36 79.9401H21.19V82.1101H23.36V79.9401Z" fill="#2D2511"/>
<path d="M23.36 77.77H21.19V79.94H23.36V77.77Z" fill="#2D2511"/>
<path d="M40.72 82.11H38.55V84.28H40.72V82.11Z" fill="#2D2511"/>
<path d="M42.89 79.9401H40.72V82.1101H42.89V79.9401Z" fill="#2D2511"/>
<path d="M42.89 82.11H40.72V84.28H42.89V82.11Z" fill="#2D2511"/>
<path d="M49.39 79.9401H47.22V82.1101H49.39V79.9401Z" fill="#2D2511"/>
<path d="M64.58 79.9401H62.41V82.1101H64.58V79.9401Z" fill="#2D2511"/>
<path d="M23.36 82.11H21.19V84.28H23.36V82.11Z" fill="#2D2511"/>
<path d="M36.38 84.28H34.21V86.45H36.38V84.28Z" fill="#2D2511"/>
<path d="M38.55 84.28H36.38V86.45H38.55V84.28Z" fill="#2D2511"/>
<path d="M40.72 82.11H38.55V84.28H40.72V82.11Z" fill="#2D2511"/>
<path d="M40.72 84.28H38.55V86.45H40.72V84.28Z" fill="#2D2511"/>
<path d="M51.56 84.28H49.39V86.45H51.56V84.28Z" fill="#2D2511"/>
<path d="M49.39 82.11H47.22V84.28H49.39V82.11Z" fill="#2D2511"/>
<path d="M49.39 84.28H47.22V86.45H49.39V84.28Z" fill="#2D2511"/>
<path d="M62.4101 84.28H60.2401V86.45H62.4101V84.28Z" fill="#2D2511"/>
<path d="M64.58 82.11H62.41V84.28H64.58V82.11Z" fill="#2D2511"/>
<path d="M64.58 84.28H62.41V86.45H64.58V84.28Z" fill="#2D2511"/>
<path d="M25.53 86.4501H23.36V88.6201H25.53V86.4501Z" fill="#2D2511"/>
<path d="M23.36 84.28H21.19V86.45H23.36V84.28Z" fill="#2D2511"/>
<path d="M23.36 86.4501H21.19V88.6201H23.36V86.4501Z" fill="#2D2511"/>
<path d="M32.0401 86.4501H29.8701V88.6201H32.0401V86.4501Z" fill="#2D2511"/>
<path d="M34.21 86.4501H32.04V88.6201H34.21V86.4501Z" fill="#2D2511"/>
<path d="M36.38 84.28H34.21V86.45H36.38V84.28Z" fill="#2D2511"/>
<path d="M36.38 86.4501H34.21V88.6201H36.38V86.4501Z" fill="#2D2511"/>
<path d="M51.56 84.28H49.39V86.45H51.56V84.28Z" fill="#2D2511"/>
<path d="M62.4101 84.28H60.2401V86.45H62.4101V84.28Z" fill="#2D2511"/>
<path d="M27.7 88.61H25.53V90.78H27.7V88.61Z" fill="#2D2511"/>
<path d="M25.53 86.4501H23.36V88.6201H25.53V86.4501Z" fill="#2D2511"/>
<path d="M25.53 88.61H23.36V90.78H25.53V88.61Z" fill="#2D2511"/>
<path d="M29.87 88.61H27.7V90.78H29.87V88.61Z" fill="#2D2511"/>
<path d="M32.0401 86.4501H29.8701V88.6201H32.0401V86.4501Z" fill="#2D2511"/>
<path d="M32.0401 88.61H29.8701V90.78H32.0401V88.61Z" fill="#2D2511"/>
<path d="M53.73 88.61H51.56V90.78H53.73V88.61Z" fill="#2D2511"/>
<path d="M51.56 86.4501H49.39V88.6201H51.56V86.4501Z" fill="#2D2511"/>
<path d="M51.56 88.61H49.39V90.78H51.56V88.61Z" fill="#2D2511"/>
<path d="M62.4101 86.4501H60.2401V88.6201H62.4101V86.4501Z" fill="#2D2511"/>
<path d="M55.9 90.78H53.73V92.95H55.9V90.78Z" fill="#2D2511"/>
<path d="M53.73 88.61H51.56V90.78H53.73V88.61Z" fill="#2D2511"/>
<path d="M53.73 90.78H51.56V92.95H53.73V90.78Z" fill="#2D2511"/>
<path d="M60.24 90.78H58.07V92.95H60.24V90.78Z" fill="#2D2511"/>
<path d="M62.4101 88.61H60.2401V90.78H62.4101V88.61Z" fill="#2D2511"/>
<path d="M62.4101 90.78H60.2401V92.95H62.4101V90.78Z" fill="#2D2511"/>
<path d="M58.07 92.9501H55.9V95.1201H58.07V92.9501Z" fill="#2D2511"/>
<path d="M55.9 90.78H53.73V92.95H55.9V90.78Z" fill="#2D2511"/>
<path d="M60.24 90.78H58.07V92.95H60.24V90.78Z" fill="#2D2511"/>
<path d="M55.9 92.9501H53.73V95.1201H55.9V92.9501Z" fill="#2D2511"/>
<path d="M60.24 92.9501H58.07V95.1201H60.24V92.9501Z" fill="#2D2511"/>
<path d="M53.73 6.17004H51.56V8.34004H53.73V6.17004Z" fill="#FFE52E"/>
<path d="M55.9 6.17004H53.73V8.34004H55.9V6.17004Z" fill="#FFE52E"/>
<path d="M51.56 8.33997H49.39V10.51H51.56V8.33997Z" fill="#FFE52E"/>
<path d="M53.73 8.33997H51.56V10.51H53.73V8.33997Z" fill="#FFE429"/>
<path d="M55.9 8.33997H53.73V10.51H55.9V8.33997Z" fill="#FFE429"/>
<path d="M49.39 10.51H47.22V12.68H49.39V10.51Z" fill="#FFE52E"/>
<path d="M51.56 10.51H49.39V12.68H51.56V10.51Z" fill="#FFE429"/>
<path d="M53.73 10.51H51.56V12.68H53.73V10.51Z" fill="#FFE429"/>
<path d="M55.9 10.51H53.73V12.68H55.9V10.51Z" fill="#FFE429"/>
<path d="M58.07 10.51H55.9V12.68H58.07V10.51Z" fill="#FFE52E"/>
<path d="M49.39 12.6801H47.22V14.8501H49.39V12.6801Z" fill="#FFE429"/>
<path d="M51.56 12.6801H49.39V14.8501H51.56V12.6801Z" fill="#FFE429"/>
<path d="M53.73 12.6801H51.56V14.8501H53.73V12.6801Z" fill="#FFE429"/>
<path d="M55.9 12.6801H53.73V14.8501H55.9V12.6801Z" fill="#FFE429"/>
<path d="M58.07 12.6801H55.9V14.8501H58.07V12.6801Z" fill="#FFE52E"/>
<path d="M47.22 14.85H45.05V17.02H47.22V14.85Z" fill="#FFE52E"/>
<path d="M49.39 14.85H47.22V17.02H49.39V14.85Z" fill="#FFE429"/>
<path d="M51.56 14.85H49.39V17.02H51.56V14.85Z" fill="#FFE429"/>
<path d="M53.73 14.85H51.56V17.02H53.73V14.85Z" fill="#FFE429"/>
<path d="M55.9 14.85H53.73V17.02H55.9V14.85Z" fill="#FFE429"/>
<path d="M58.07 14.85H55.9V17.02H58.07V14.85Z" fill="#FFE52E"/>
<path d="M84.11 14.85H81.94V17.02H84.11V14.85Z" fill="#FFE52E"/>
<path d="M86.28 14.85H84.11V17.02H86.28V14.85Z" fill="#FFE52E"/>
<path d="M88.45 14.85H86.28V17.02H88.45V14.85Z" fill="#FFE429"/>
<path d="M47.22 17.02H45.05V19.19H47.22V17.02Z" fill="#FFE429"/>
<path d="M49.39 17.02H47.22V19.19H49.39V17.02Z" fill="#FFE429"/>
<path d="M51.56 17.02H49.39V19.19H51.56V17.02Z" fill="#FFE429"/>
<path d="M53.73 17.02H51.56V19.19H53.73V17.02Z" fill="#FFE429"/>
<path d="M55.9 17.02H53.73V19.19H55.9V17.02Z" fill="#FFE429"/>
<path d="M58.07 17.02H55.9V19.19H58.07V17.02Z" fill="#FFE429"/>
<path d="M79.77 17.02H77.6V19.19H79.77V17.02Z" fill="#FFE52E"/>
<path d="M81.94 17.02H79.77V19.19H81.94V17.02Z" fill="#FFE429"/>
<path d="M84.11 17.02H81.94V19.19H84.11V17.02Z" fill="#FFE429"/>
<path d="M86.28 17.02H84.11V19.19H86.28V17.02Z" fill="#FFE429"/>
<path d="M88.45 17.02H86.28V19.19H88.45V17.02Z" fill="#FFE52E"/>
<path d="M45.06 19.1901H42.89V21.3601H45.06V19.1901Z" fill="#FFE52E"/>
<path d="M47.22 19.1901H45.05V21.3601H47.22V19.1901Z" fill="#FFE52E"/>
<path d="M49.39 19.1901H47.22V21.3601H49.39V19.1901Z" fill="#FFE429"/>
<path d="M51.56 19.1901H49.39V21.3601H51.56V19.1901Z" fill="#FFE429"/>
<path d="M53.73 19.1901H51.56V21.3601H53.73V19.1901Z" fill="#FFE429"/>
<path d="M55.9 19.1901H53.73V21.3601H55.9V19.1901Z" fill="#FFE429"/>
<path d="M58.07 19.1901H55.9V21.3601H58.07V19.1901Z" fill="#FFE429"/>
<path d="M75.43 19.1901H73.26V21.3601H75.43V19.1901Z" fill="#FFE52E"/>
<path d="M77.6001 19.1901H75.4301V21.3601H77.6001V19.1901Z" fill="#FFE429"/>
<path d="M79.77 19.1901H77.6V21.3601H79.77V19.1901Z" fill="#FFE429"/>
<path d="M81.94 19.1901H79.77V21.3601H81.94V19.1901Z" fill="#FFE429"/>
<path d="M84.11 19.1901H81.94V21.3601H84.11V19.1901Z" fill="#FFE429"/>
<path d="M86.28 19.1901H84.11V21.3601H86.28V19.1901Z" fill="#FFE429"/>
<path d="M88.45 19.1901H86.28V21.3601H88.45V19.1901Z" fill="#FFE52E"/>
<path d="M45.06 21.36H42.89V23.53H45.06V21.36Z" fill="#FFE52E"/>
<path d="M47.22 21.36H45.05V23.53H47.22V21.36Z" fill="#FFE429"/>
<path d="M49.39 21.36H47.22V23.53H49.39V21.36Z" fill="#FFE429"/>
<path d="M51.56 21.36H49.39V23.53H51.56V21.36Z" fill="#FFE429"/>
<path d="M53.73 21.36H51.56V23.53H53.73V21.36Z" fill="#FFE429"/>
<path d="M55.9 21.36H53.73V23.53H55.9V21.36Z" fill="#FFE429"/>
<path d="M58.07 21.36H55.9V23.53H58.07V21.36Z" fill="#FFE429"/>
<path d="M60.24 21.36H58.07V23.53H60.24V21.36Z" fill="#FFE52E"/>
<path d="M71.09 21.36H68.92V23.53H71.09V21.36Z" fill="#FFE52E"/>
<path d="M73.26 21.36H71.09V23.53H73.26V21.36Z" fill="#FFE52E"/>
<path d="M75.43 21.36H73.26V23.53H75.43V21.36Z" fill="#FFE429"/>
<path d="M77.6001 21.36H75.4301V23.53H77.6001V21.36Z" fill="#FFE429"/>
<path d="M79.77 21.36H77.6V23.53H79.77V21.36Z" fill="#FFE429"/>
<path d="M81.94 21.36H79.77V23.53H81.94V21.36Z" fill="#FFE429"/>
<path d="M84.11 21.36H81.94V23.53H84.11V21.36Z" fill="#FFE429"/>
<path d="M86.28 21.36H84.11V23.53H86.28V21.36Z" fill="#FFE52E"/>
<path d="M12.51 23.53H10.34V25.7H12.51V23.53Z" fill="#FFE52E"/>
<path d="M14.68 23.53H12.51V25.7H14.68V23.53Z" fill="#FFE52E"/>
<path d="M16.8501 23.53H14.6801V25.7H16.8501V23.53Z" fill="#FFE52E"/>
<path d="M19.02 23.53H16.85V25.7H19.02V23.53Z" fill="#FFE52E"/>
<path d="M21.19 23.53H19.02V25.7H21.19V23.53Z" fill="#FFE52E"/>
<path d="M23.36 23.53H21.19V25.7H23.36V23.53Z" fill="#FFE52E"/>
<path d="M42.89 23.53H40.72V25.7H42.89V23.53Z" fill="#FFE52E"/>
<path d="M45.06 23.53H42.89V25.7H45.06V23.53Z" fill="#FFE429"/>
<path d="M47.22 23.53H45.05V25.7H47.22V23.53Z" fill="#FFE429"/>
<path d="M49.39 23.53H47.22V25.7H49.39V23.53Z" fill="#FFE429"/>
<path d="M51.56 23.53H49.39V25.7H51.56V23.53Z" fill="#FFE429"/>
<path d="M53.73 23.53H51.56V25.7H53.73V23.53Z" fill="#FFE429"/>
<path d="M55.9 23.53H53.73V25.7H55.9V23.53Z" fill="#FFE429"/>
<path d="M58.07 23.53H55.9V25.7H58.07V23.53Z" fill="#FFE429"/>
<path d="M60.24 23.53H58.07V25.7H60.24V23.53Z" fill="#FFE52E"/>
<path d="M68.9201 23.53H66.7501V25.7H68.9201V23.53Z" fill="#FFE52E"/>
<path d="M71.09 23.53H68.92V25.7H71.09V23.53Z" fill="#FFE429"/>
<path d="M73.26 23.53H71.09V25.7H73.26V23.53Z" fill="#FFE429"/>
<path d="M75.43 23.53H73.26V25.7H75.43V23.53Z" fill="#FFE429"/>
<path d="M77.6001 23.53H75.4301V25.7H77.6001V23.53Z" fill="#FFE429"/>
<path d="M79.77 23.53H77.6V25.7H79.77V23.53Z" fill="#FFE429"/>
<path d="M81.94 23.53H79.77V25.7H81.94V23.53Z" fill="#FFE429"/>
<path d="M84.11 23.53H81.94V25.7H84.11V23.53Z" fill="#FFE52E"/>
<path d="M12.51 25.7001H10.34V27.8701H12.51V25.7001Z" fill="#FFE52E"/>
<path d="M14.68 25.7001H12.51V27.8701H14.68V25.7001Z" fill="#FFE429"/>
<path d="M16.8501 25.7001H14.6801V27.8701H16.8501V25.7001Z" fill="#FFE429"/>
<path d="M19.02 25.7001H16.85V27.8701H19.02V25.7001Z" fill="#FFE429"/>
<path d="M21.19 25.7001H19.02V27.8701H21.19V25.7001Z" fill="#FFE429"/>
<path d="M23.36 25.7001H21.19V27.8701H23.36V25.7001Z" fill="#FFE429"/>
<path d="M25.53 25.7001H23.36V27.8701H25.53V25.7001Z" fill="#FFE429"/>
<path d="M27.7 25.7001H25.53V27.8701H27.7V25.7001Z" fill="#FFE52E"/>
<path d="M29.87 25.7001H27.7V27.8701H29.87V25.7001Z" fill="#FFE52E"/>
<path d="M42.89 25.7001H40.72V27.8701H42.89V25.7001Z" fill="#FFE429"/>
<path d="M45.06 25.7001H42.89V27.8701H45.06V25.7001Z" fill="#FFE429"/>
<path d="M47.22 25.7001H45.05V27.8701H47.22V25.7001Z" fill="#FFE429"/>
<path d="M49.39 25.7001H47.22V27.8701H49.39V25.7001Z" fill="#FFE429"/>
<path d="M51.56 25.7001H49.39V27.8701H51.56V25.7001Z" fill="#FFE429"/>
<path d="M53.73 25.7001H51.56V27.8701H53.73V25.7001Z" fill="#FFE429"/>
<path d="M55.9 25.7001H53.73V27.8701H55.9V25.7001Z" fill="#FFE429"/>
<path d="M58.07 25.7001H55.9V27.8701H58.07V25.7001Z" fill="#FFE429"/>
<path d="M60.24 25.7001H58.07V27.8701H60.24V25.7001Z" fill="#FFE429"/>
<path d="M64.58 25.7001H62.41V27.8701H64.58V25.7001Z" fill="#FFE52E"/>
<path d="M66.75 25.7001H64.58V27.8701H66.75V25.7001Z" fill="#FFE52E"/>
<path d="M68.9201 25.7001H66.7501V27.8701H68.9201V25.7001Z" fill="#FFE429"/>
<path d="M71.09 25.7001H68.92V27.8701H71.09V25.7001Z" fill="#FFE429"/>
<path d="M73.26 25.7001H71.09V27.8701H73.26V25.7001Z" fill="#FFE429"/>
<path d="M75.43 25.7001H73.26V27.8701H75.43V25.7001Z" fill="#FFE429"/>
<path d="M77.6001 25.7001H75.4301V27.8701H77.6001V25.7001Z" fill="#FFE429"/>
<path d="M79.77 25.7001H77.6V27.8701H79.77V25.7001Z" fill="#FFE429"/>
<path d="M81.94 25.7001H79.77V27.8701H81.94V25.7001Z" fill="#FFE429"/>
<path d="M84.11 25.7001H81.94V27.8701H84.11V25.7001Z" fill="#FFE52E"/>
<path d="M14.68 27.87H12.51V30.04H14.68V27.87Z" fill="#FFE429"/>
<path d="M16.8501 27.87H14.6801V30.04H16.8501V27.87Z" fill="#FFE429"/>
<path d="M19.02 27.87H16.85V30.04H19.02V27.87Z" fill="#FFE429"/>
<path d="M21.19 27.87H19.02V30.04H21.19V27.87Z" fill="#FFE429"/>
<path d="M23.36 27.87H21.19V30.04H23.36V27.87Z" fill="#FFE429"/>
<path d="M25.53 27.87H23.36V30.04H25.53V27.87Z" fill="#FFE429"/>
<path d="M27.7 27.87H25.53V30.04H27.7V27.87Z" fill="#FFE429"/>
<path d="M29.87 27.87H27.7V30.04H29.87V27.87Z" fill="#FFE429"/>
<path d="M32.0401 27.87H29.8701V30.04H32.0401V27.87Z" fill="#FFE429"/>
<path d="M34.21 27.87H32.04V30.04H34.21V27.87Z" fill="#FFE52E"/>
<path d="M36.38 27.87H34.21V30.04H36.38V27.87Z" fill="#FFE52E"/>
<path d="M40.72 27.87H38.55V30.04H40.72V27.87Z" fill="#FFE52E"/>
<path d="M42.89 27.87H40.72V30.04H42.89V27.87Z" fill="#FFE429"/>
<path d="M45.06 27.87H42.89V30.04H45.06V27.87Z" fill="#FFE429"/>
<path d="M47.22 27.87H45.05V30.04H47.22V27.87Z" fill="#FFE429"/>
<path d="M49.39 27.87H47.22V30.04H49.39V27.87Z" fill="#FFE429"/>
<path d="M51.56 27.87H49.39V30.04H51.56V27.87Z" fill="#FFE429"/>
<path d="M53.73 27.87H51.56V30.04H53.73V27.87Z" fill="#FFE429"/>
<path d="M55.9 27.87H53.73V30.04H55.9V27.87Z" fill="#FFE429"/>
<path d="M58.07 27.87H55.9V30.04H58.07V27.87Z" fill="#FFE429"/>
<path d="M60.24 27.87H58.07V30.04H60.24V27.87Z" fill="#FFE429"/>
<path d="M62.4101 27.87H60.2401V30.04H62.4101V27.87Z" fill="#FFE52E"/>
<path d="M64.58 27.87H62.41V30.04H64.58V27.87Z" fill="#FFE52E"/>
<path d="M66.75 27.87H64.58V30.04H66.75V27.87Z" fill="#FFE429"/>
<path d="M68.9201 27.87H66.7501V30.04H68.9201V27.87Z" fill="#FFE429"/>
<path d="M71.09 27.87H68.92V30.04H71.09V27.87Z" fill="#FFE429"/>
<path d="M73.26 27.87H71.09V30.04H73.26V27.87Z" fill="#FFE429"/>
<path d="M75.43 27.87H73.26V30.04H75.43V27.87Z" fill="#FFE429"/>
<path d="M77.6001 27.87H75.4301V30.04H77.6001V27.87Z" fill="#FFE429"/>
<path d="M79.77 27.87H77.6V30.04H79.77V27.87Z" fill="#FFE429"/>
<path d="M81.94 27.87H79.77V30.04H81.94V27.87Z" fill="#FFE52E"/>
<path d="M14.68 30.04H12.51V32.21H14.68V30.04Z" fill="#FFE52E"/>
<path d="M16.8501 30.04H14.6801V32.21H16.8501V30.04Z" fill="#FFE52E"/>
<path d="M19.02 30.04H16.85V32.21H19.02V30.04Z" fill="#FFE429"/>
<path d="M21.19 30.04H19.02V32.21H21.19V30.04Z" fill="#FFE429"/>
<path d="M23.36 30.04H21.19V32.21H23.36V30.04Z" fill="#FFE429"/>
<path d="M25.53 30.04H23.36V32.21H25.53V30.04Z" fill="#FFE429"/>
<path d="M27.7 30.04H25.53V32.21H27.7V30.04Z" fill="#FFE429"/>
<path d="M29.87 30.04H27.7V32.21H29.87V30.04Z" fill="#FFE429"/>
<path d="M32.0401 30.04H29.8701V32.21H32.0401V30.04Z" fill="#FFE429"/>
<path d="M34.21 30.04H32.04V32.21H34.21V30.04Z" fill="#FFE429"/>
<path d="M36.38 30.04H34.21V32.21H36.38V30.04Z" fill="#FFE429"/>
<path d="M38.55 30.04H36.38V32.21H38.55V30.04Z" fill="#FFE52E"/>
<path d="M40.72 30.04H38.55V32.21H40.72V30.04Z" fill="#FFE52E"/>
<path d="M42.89 30.04H40.72V32.21H42.89V30.04Z" fill="#FFE429"/>
<path d="M45.06 30.04H42.89V32.21H45.06V30.04Z" fill="#FFE429"/>
<path d="M47.22 30.04H45.05V32.21H47.22V30.04Z" fill="#FFE429"/>
<path d="M49.39 30.04H47.22V32.21H49.39V30.04Z" fill="#FFE429"/>
<path d="M51.56 30.04H49.39V32.21H51.56V30.04Z" fill="#FFE429"/>
<path d="M53.73 30.04H51.56V32.21H53.73V30.04Z" fill="#FFE429"/>
<path d="M55.9 30.04H53.73V32.21H55.9V30.04Z" fill="#FFE429"/>
<path d="M58.07 30.04H55.9V32.21H58.07V30.04Z" fill="#FFE429"/>
<path d="M60.24 30.04H58.07V32.21H60.24V30.04Z" fill="#FFE429"/>
<path d="M62.4101 30.04H60.2401V32.21H62.4101V30.04Z" fill="#FFE429"/>
<path d="M64.58 30.04H62.41V32.21H64.58V30.04Z" fill="#FFE429"/>
<path d="M66.75 30.04H64.58V32.21H66.75V30.04Z" fill="#FFE429"/>
<path d="M68.9201 30.04H66.7501V32.21H68.9201V30.04Z" fill="#FFE429"/>
<path d="M71.09 30.04H68.92V32.21H71.09V30.04Z" fill="#FFE429"/>
<path d="M73.26 30.04H71.09V32.21H73.26V30.04Z" fill="#FFE429"/>
<path d="M75.43 30.04H73.26V32.21H75.43V30.04Z" fill="#FFE429"/>
<path d="M77.6001 30.04H75.4301V32.21H77.6001V30.04Z" fill="#FFE429"/>
<path d="M79.77 30.04H77.6V32.21H79.77V30.04Z" fill="#FFE429"/>
<path d="M16.8501 32.21H14.6801V34.38H16.8501V32.21Z" fill="#FFE52E"/>
<path d="M19.02 32.21H16.85V34.38H19.02V32.21Z" fill="#FFE429"/>
<path d="M21.19 32.21H19.02V34.38H21.19V32.21Z" fill="#FFE429"/>
<path d="M23.36 32.21H21.19V34.38H23.36V32.21Z" fill="#FFE429"/>
<path d="M25.53 32.21H23.36V34.38H25.53V32.21Z" fill="#FFE429"/>
<path d="M27.7 32.21H25.53V34.38H27.7V32.21Z" fill="#FFE429"/>
<path d="M29.87 32.21H27.7V34.38H29.87V32.21Z" fill="#FFE429"/>
<path d="M32.0401 32.21H29.8701V34.38H32.0401V32.21Z" fill="#FFE429"/>
<path d="M34.21 32.21H32.04V34.38H34.21V32.21Z" fill="#FFE429"/>
<path d="M36.38 32.21H34.21V34.38H36.38V32.21Z" fill="#FFE429"/>
<path d="M38.55 32.21H36.38V34.38H38.55V32.21Z" fill="#FFE429"/>
<path d="M40.72 32.21H38.55V34.38H40.72V32.21Z" fill="#FFE429"/>
<path d="M42.89 32.21H40.72V34.38H42.89V32.21Z" fill="#FFE429"/>
<path d="M45.06 32.21H42.89V34.38H45.06V32.21Z" fill="#FFE429"/>
<path d="M47.22 32.21H45.05V34.38H47.22V32.21Z" fill="#FFE429"/>
<path d="M49.39 32.21H47.22V34.38H49.39V32.21Z" fill="#FFE429"/>
<path d="M51.56 32.21H49.39V34.38H51.56V32.21Z" fill="#FFE429"/>
<path d="M53.73 32.21H51.56V34.38H53.73V32.21Z" fill="#FFE429"/>
<path d="M55.9 32.21H53.73V34.38H55.9V32.21Z" fill="#FFE429"/>
<path d="M58.07 32.21H55.9V34.38H58.07V32.21Z" fill="#FFE429"/>
<path d="M60.24 32.21H58.07V34.38H60.24V32.21Z" fill="#FFE429"/>
<path d="M62.4101 32.21H60.2401V34.38H62.4101V32.21Z" fill="#FFE429"/>
<path d="M64.58 32.21H62.41V34.38H64.58V32.21Z" fill="#FFE429"/>
<path d="M66.75 32.21H64.58V34.38H66.75V32.21Z" fill="#FFE429"/>
<path d="M68.9201 32.21H66.7501V34.38H68.9201V32.21Z" fill="#FFE429"/>
<path d="M71.09 32.21H68.92V34.38H71.09V32.21Z" fill="#FFE429"/>
<path d="M73.26 32.21H71.09V34.38H73.26V32.21Z" fill="#FFE429"/>
<path d="M75.43 32.21H73.26V34.38H75.43V32.21Z" fill="#FFE429"/>
<path d="M77.6001 32.21H75.4301V34.38H77.6001V32.21Z" fill="#FFE429"/>
<path d="M79.77 32.21H77.6V34.38H79.77V32.21Z" fill="#FFE52E"/>
<path d="M19.02 34.38H16.85V36.55H19.02V34.38Z" fill="#FFE52E"/>
<path d="M21.19 34.38H19.02V36.55H21.19V34.38Z" fill="#FFE429"/>
<path d="M23.36 34.38H21.19V36.55H23.36V34.38Z" fill="#FFE429"/>
<path d="M25.53 34.38H23.36V36.55H25.53V34.38Z" fill="#FFE429"/>
<path d="M27.7 34.38H25.53V36.55H27.7V34.38Z" fill="#FFE429"/>
<path d="M29.87 34.38H27.7V36.55H29.87V34.38Z" fill="#FFE429"/>
<path d="M32.0401 34.38H29.8701V36.55H32.0401V34.38Z" fill="#FFE429"/>
<path d="M34.21 34.38H32.04V36.55H34.21V34.38Z" fill="#FFE429"/>
<path d="M36.38 34.38H34.21V36.55H36.38V34.38Z" fill="#FFE429"/>
<path d="M38.55 34.38H36.38V36.55H38.55V34.38Z" fill="#FFE429"/>
<path d="M40.72 34.38H38.55V36.55H40.72V34.38Z" fill="#FFE429"/>
<path d="M42.89 34.38H40.72V36.55H42.89V34.38Z" fill="#FFE429"/>
<path d="M45.06 34.38H42.89V36.55H45.06V34.38Z" fill="#FFE429"/>
<path d="M47.22 34.38H45.05V36.55H47.22V34.38Z" fill="#FFE429"/>
<path d="M49.39 34.38H47.22V36.55H49.39V34.38Z" fill="#FFE429"/>
<path d="M51.56 34.38H49.39V36.55H51.56V34.38Z" fill="#FFE429"/>
<path d="M53.73 34.38H51.56V36.55H53.73V34.38Z" fill="#FFE429"/>
<path d="M55.9 34.38H53.73V36.55H55.9V34.38Z" fill="#FFE429"/>
<path d="M58.07 34.38H55.9V36.55H58.07V34.38Z" fill="#FFE429"/>
<path d="M60.24 34.38H58.07V36.55H60.24V34.38Z" fill="#FFE429"/>
<path d="M62.4101 34.38H60.2401V36.55H62.4101V34.38Z" fill="#FFE429"/>
<path d="M64.58 34.38H62.41V36.55H64.58V34.38Z" fill="#FFE429"/>
<path d="M66.75 34.38H64.58V36.55H66.75V34.38Z" fill="#FFE429"/>
<path d="M68.9201 34.38H66.7501V36.55H68.9201V34.38Z" fill="#FFE429"/>
<path d="M71.09 34.38H68.92V36.55H71.09V34.38Z" fill="#FFE429"/>
<path d="M73.26 34.38H71.09V36.55H73.26V34.38Z" fill="#FFE429"/>
<path d="M75.43 34.38H73.26V36.55H75.43V34.38Z" fill="#FFE429"/>
<path d="M77.6001 34.38H75.4301V36.55H77.6001V34.38Z" fill="#FFE52E"/>
<path d="M21.19 36.55H19.02V38.7201H21.19V36.55Z" fill="#FFE52E"/>
<path d="M23.36 36.55H21.19V38.7201H23.36V36.55Z" fill="#FFE429"/>
<path d="M25.53 36.55H23.36V38.7201H25.53V36.55Z" fill="#FFE429"/>
<path d="M27.7 36.55H25.53V38.7201H27.7V36.55Z" fill="#FFE429"/>
<path d="M29.87 36.55H27.7V38.7201H29.87V36.55Z" fill="#FFE429"/>
<path d="M32.0401 36.55H29.8701V38.7201H32.0401V36.55Z" fill="#FFE429"/>
<path d="M34.21 36.55H32.04V38.7201H34.21V36.55Z" fill="#FFE429"/>
<path d="M36.38 36.55H34.21V38.7201H36.38V36.55Z" fill="#FFE429"/>
<path d="M38.55 36.55H36.38V38.7201H38.55V36.55Z" fill="#FFE429"/>
<path d="M40.72 36.55H38.55V38.7201H40.72V36.55Z" fill="#FFE429"/>
<path d="M42.89 36.55H40.72V38.7201H42.89V36.55Z" fill="#FFE429"/>
<path d="M45.06 36.55H42.89V38.7201H45.06V36.55Z" fill="#FFE429"/>
<path d="M47.22 36.55H45.05V38.7201H47.22V36.55Z" fill="#FFE429"/>
<path d="M49.39 36.55H47.22V38.7201H49.39V36.55Z" fill="#FFE429"/>
<path d="M51.56 36.55H49.39V38.7201H51.56V36.55Z" fill="#FFE429"/>
<path d="M53.73 36.55H51.56V38.7201H53.73V36.55Z" fill="#FFE429"/>
<path d="M55.9 36.55H53.73V38.7201H55.9V36.55Z" fill="#FFE429"/>
<path d="M58.07 36.55H55.9V38.7201H58.07V36.55Z" fill="#FFE429"/>
<path d="M60.24 36.55H58.07V38.7201H60.24V36.55Z" fill="#FFE429"/>
<path d="M62.4101 36.55H60.2401V38.7201H62.4101V36.55Z" fill="#FFE429"/>
<path d="M64.58 36.55H62.41V38.7201H64.58V36.55Z" fill="#FFE429"/>
<path d="M66.75 36.55H64.58V38.7201H66.75V36.55Z" fill="#FFE429"/>
<path d="M68.9201 36.55H66.7501V38.7201H68.9201V36.55Z" fill="#FFE429"/>
<path d="M71.09 36.55H68.92V38.7201H71.09V36.55Z" fill="#FFE429"/>
<path d="M73.26 36.55H71.09V38.7201H73.26V36.55Z" fill="#FFE429"/>
<path d="M75.43 36.55H73.26V38.7201H75.43V36.55Z" fill="#FFE52E"/>
<path d="M23.36 38.72H21.19V40.89H23.36V38.72Z" fill="#FFE52E"/>
<path d="M25.53 38.72H23.36V40.89H25.53V38.72Z" fill="#FFE429"/>
<path d="M27.7 38.72H25.53V40.89H27.7V38.72Z" fill="#FFE429"/>
<path d="M29.87 38.72H27.7V40.89H29.87V38.72Z" fill="#FFE429"/>
<path d="M32.0401 38.72H29.8701V40.89H32.0401V38.72Z" fill="#FFE429"/>
<path d="M34.21 38.72H32.04V40.89H34.21V38.72Z" fill="#FFE429"/>
<path d="M36.38 38.72H34.21V40.89H36.38V38.72Z" fill="#FFE429"/>
<path d="M38.55 38.72H36.38V40.89H38.55V38.72Z" fill="#FFE429"/>
<path d="M40.72 38.72H38.55V40.89H40.72V38.72Z" fill="#FFE429"/>
<path d="M42.89 38.72H40.72V40.89H42.89V38.72Z" fill="#FFE429"/>
<path d="M45.06 38.72H42.89V40.89H45.06V38.72Z" fill="#FFE429"/>
<path d="M47.22 38.72H45.05V40.89H47.22V38.72Z" fill="#FFE429"/>
<path d="M49.39 38.72H47.22V40.89H49.39V38.72Z" fill="#FFE429"/>
<path d="M51.56 38.72H49.39V40.89H51.56V38.72Z" fill="#FFE429"/>
<path d="M53.73 38.72H51.56V40.89H53.73V38.72Z" fill="#FFE429"/>
<path d="M55.9 38.72H53.73V40.89H55.9V38.72Z" fill="#FFE429"/>
<path d="M58.07 38.72H55.9V40.89H58.07V38.72Z" fill="#FFE52E"/>
<path d="M60.24 38.72H58.07V40.89H60.24V38.72Z" fill="#FFE429"/>
<path d="M62.4101 38.72H60.2401V40.89H62.4101V38.72Z" fill="#FFE429"/>
<path d="M64.58 38.72H62.41V40.89H64.58V38.72Z" fill="#FFE429"/>
<path d="M66.75 38.72H64.58V40.89H66.75V38.72Z" fill="#FFE429"/>
<path d="M68.9201 38.72H66.7501V40.89H68.9201V38.72Z" fill="#FFE429"/>
<path d="M71.09 38.72H68.92V40.89H71.09V38.72Z" fill="#FFE429"/>
<path d="M73.26 38.72H71.09V40.89H73.26V38.72Z" fill="#FFE52E"/>
<path d="M25.53 40.89H23.36V43.06H25.53V40.89Z" fill="#FFE52E"/>
<path d="M27.7 40.89H25.53V43.06H27.7V40.89Z" fill="#FFE429"/>
<path d="M29.87 40.89H27.7V43.06H29.87V40.89Z" fill="#FFE429"/>
<path d="M32.0401 40.89H29.8701V43.06H32.0401V40.89Z" fill="#FFE429"/>
<path d="M34.21 40.89H32.04V43.06H34.21V40.89Z" fill="#FFE429"/>
<path d="M36.38 40.89H34.21V43.06H36.38V40.89Z" fill="#FFE429"/>
<path d="M38.55 40.89H36.38V43.06H38.55V40.89Z" fill="#FFE429"/>
<path d="M40.72 40.89H38.55V43.06H40.72V40.89Z" fill="#FFE52E"/>
<path d="M42.89 40.89H40.72V43.06H42.89V40.89Z" fill="#FFE429"/>
<path d="M45.06 40.89H42.89V43.06H45.06V40.89Z" fill="#FFE429"/>
<path d="M47.22 40.89H45.05V43.06H47.22V40.89Z" fill="#FFE429"/>
<path d="M49.39 40.89H47.22V43.06H49.39V40.89Z" fill="#FFE429"/>
<path d="M51.56 40.89H49.39V43.06H51.56V40.89Z" fill="#FFE429"/>
<path d="M53.73 40.89H51.56V43.06H53.73V40.89Z" fill="#FFE52E"/>
<path d="M58.07 40.89H55.9V43.06H58.07V40.89Z" fill="#2D2511"/>
<path d="M60.24 40.89H58.07V43.06H60.24V40.89Z" fill="#2D2511"/>
<path d="M62.4101 40.89H60.2401V43.06H62.4101V40.89Z" fill="#2D2511"/>
<path d="M64.58 40.89H62.41V43.06H64.58V40.89Z" fill="#FFE429"/>
<path d="M66.75 40.89H64.58V43.06H66.75V40.89Z" fill="#FFE429"/>
<path d="M68.9201 40.89H66.7501V43.06H68.9201V40.89Z" fill="#FFE429"/>
<path d="M71.09 40.89H68.92V43.06H71.09V40.89Z" fill="#FFE429"/>
<path d="M73.26 40.89H71.09V43.06H73.26V40.89Z" fill="#FFE52E"/>
<path d="M27.7 43.0601H25.53V45.2301H27.7V43.0601Z" fill="#FFE52E"/>
<path d="M29.87 43.0601H27.7V45.2301H29.87V43.0601Z" fill="#FFE429"/>
<path d="M32.0401 43.0601H29.8701V45.2301H32.0401V43.0601Z" fill="#FFE429"/>
<path d="M34.21 43.0601H32.04V45.2301H34.21V43.0601Z" fill="#FFE429"/>
<path d="M36.38 43.0601H34.21V45.2301H36.38V43.0601Z" fill="#FFE52E"/>
<path d="M38.55 43.0601H36.38V45.2301H38.55V43.0601Z" fill="#2D2511"/>
<path d="M40.72 43.0601H38.55V45.2301H40.72V43.0601Z" fill="#2D2511"/>
<path d="M42.89 43.0601H40.72V45.2301H42.89V43.0601Z" fill="#2D2511"/>
<path d="M45.06 43.0601H42.89V45.2301H45.06V43.0601Z" fill="#FFE429"/>
<path d="M47.22 43.0601H45.05V45.2301H47.22V43.0601Z" fill="#FFE429"/>
<path d="M49.39 43.0601H47.22V45.2301H49.39V43.0601Z" fill="#FFE429"/>
<path d="M51.56 43.0601H49.39V45.2301H51.56V43.0601Z" fill="#FFE429"/>
<path d="M53.73 43.0601H51.56V45.2301H53.73V43.0601Z" fill="#FFE52E"/>
<path d="M58.07 43.0601H55.9V45.2301H58.07V43.0601Z" fill="#2D2511"/>
<path d="M60.24 43.0601H58.07V45.2301H60.24V43.0601Z" fill="white"/>
<path d="M62.4101 43.0601H60.2401V45.2301H62.4101V43.0601Z" fill="white"/>
<path d="M64.58 43.0601H62.41V45.2301H64.58V43.0601Z" fill="#FFE429"/>
<path d="M66.75 43.0601H64.58V45.2301H66.75V43.0601Z" fill="#FFE429"/>
<path d="M68.9201 43.0601H66.7501V45.2301H68.9201V43.0601Z" fill="#FFE429"/>
<path d="M71.09 43.0601H68.92V45.2301H71.09V43.0601Z" fill="#FFE429"/>
<path d="M73.26 43.0601H71.09V45.2301H73.26V43.0601Z" fill="#FFE52E"/>
<path d="M75.43 43.0601H73.26V45.2301H75.43V43.0601Z" fill="#FFE52E"/>
<path d="M77.6001 43.0601H75.4301V45.2301H77.6001V43.0601Z" fill="#FFE52E"/>
<path d="M25.53 45.22H23.36V47.39H25.53V45.22Z" fill="#FFE52E"/>
<path d="M27.7 45.22H25.53V47.39H27.7V45.22Z" fill="#FFE52E"/>
<path d="M29.87 45.22H27.7V47.39H29.87V45.22Z" fill="#FFE429"/>
<path d="M32.0401 45.22H29.8701V47.39H32.0401V45.22Z" fill="#FFE429"/>
<path d="M34.21 45.22H32.04V47.39H34.21V45.22Z" fill="#FFE52E"/>
<path d="M40.72 45.22H38.55V47.39H40.72V45.22Z" fill="white"/>
<path d="M42.89 45.22H40.72V47.39H42.89V45.22Z" fill="white"/>
<path d="M45.06 45.22H42.89V47.39H45.06V45.22Z" fill="#FFE52E"/>
<path d="M47.22 45.22H45.05V47.39H47.22V45.22Z" fill="#FFE429"/>
<path d="M49.39 45.22H47.22V47.39H49.39V45.22Z" fill="#FFE429"/>
<path d="M51.56 45.22H49.39V47.39H51.56V45.22Z" fill="#FFE429"/>
<path d="M60.24 45.22H58.07V47.39H60.24V45.22Z" fill="white"/>
<path d="M62.4101 45.22H60.2401V47.39H62.4101V45.22Z" fill="white"/>
<path d="M64.58 45.22H62.41V47.39H64.58V45.22Z" fill="#FFE52E"/>
<path d="M66.75 45.22H64.58V47.39H66.75V45.22Z" fill="#FFE429"/>
<path d="M68.9201 45.22H66.7501V47.39H68.9201V45.22Z" fill="#FFE429"/>
<path d="M71.09 45.22H68.92V47.39H71.09V45.22Z" fill="#FFE429"/>
<path d="M73.26 45.22H71.09V47.39H73.26V45.22Z" fill="#FFE429"/>
<path d="M75.43 45.22H73.26V47.39H75.43V45.22Z" fill="#FFE429"/>
<path d="M77.6001 45.22H75.4301V47.39H77.6001V45.22Z" fill="#FFE429"/>
<path d="M79.77 45.22H77.6V47.39H79.77V45.22Z" fill="#FFE429"/>
<path d="M81.94 45.22H79.77V47.39H81.94V45.22Z" fill="#FFE429"/>
<path d="M84.11 45.22H81.94V47.39H84.11V45.22Z" fill="#FFE429"/>
<path d="M86.28 45.22H84.11V47.39H86.28V45.22Z" fill="#FFE52E"/>
<path d="M88.45 45.22H86.28V47.39H88.45V45.22Z" fill="#FFE52E"/>
<path d="M90.61 45.22H88.44V47.39H90.61V45.22Z" fill="#FFE52E"/>
<path d="M92.78 45.22H90.61V47.39H92.78V45.22Z" fill="#FFE52E"/>
<path d="M94.95 45.22H92.78V47.39H94.95V45.22Z" fill="#FFE52E"/>
<path d="M21.19 47.39H19.02V49.56H21.19V47.39Z" fill="#FFE52E"/>
<path d="M23.36 47.39H21.19V49.56H23.36V47.39Z" fill="#FFE429"/>
<path d="M25.53 47.39H23.36V49.56H25.53V47.39Z" fill="#FFE429"/>
<path d="M27.7 47.39H25.53V49.56H27.7V47.39Z" fill="#FFE429"/>
<path d="M29.87 47.39H27.7V49.56H29.87V47.39Z" fill="#FFE429"/>
<path d="M32.0401 47.39H29.8701V49.56H32.0401V47.39Z" fill="#FFE429"/>
<path d="M34.21 47.39H32.04V49.56H34.21V47.39Z" fill="#FFE52E"/>
<path d="M40.72 47.39H38.55V49.56H40.72V47.39Z" fill="white"/>
<path d="M42.89 47.39H40.72V49.56H42.89V47.39Z" fill="white"/>
<path d="M45.06 47.39H42.89V49.56H45.06V47.39Z" fill="#FFE52E"/>
<path d="M47.22 47.39H45.05V49.56H47.22V47.39Z" fill="#FFE429"/>
<path d="M49.39 47.39H47.22V49.56H49.39V47.39Z" fill="#FFE429"/>
<path d="M51.56 47.39H49.39V49.56H51.56V47.39Z" fill="#FFE429"/>
<path d="M53.73 47.39H51.56V49.56H53.73V47.39Z" fill="#FFE52E"/>
<path d="M64.58 47.39H62.41V49.56H64.58V47.39Z" fill="#FFE429"/>
<path d="M66.75 47.39H64.58V49.56H66.75V47.39Z" fill="#FFE429"/>
<path d="M68.9201 47.39H66.7501V49.56H68.9201V47.39Z" fill="#FFE429"/>
<path d="M71.09 47.39H68.92V49.56H71.09V47.39Z" fill="#FFE429"/>
<path d="M73.26 47.39H71.09V49.56H73.26V47.39Z" fill="#FFE429"/>
<path d="M75.43 47.39H73.26V49.56H75.43V47.39Z" fill="#FFE429"/>
<path d="M77.6001 47.39H75.4301V49.56H77.6001V47.39Z" fill="#FFE429"/>
<path d="M79.77 47.39H77.6V49.56H79.77V47.39Z" fill="#FFE429"/>
<path d="M81.94 47.39H79.77V49.56H81.94V47.39Z" fill="#FFE429"/>
<path d="M84.11 47.39H81.94V49.56H84.11V47.39Z" fill="#FFE429"/>
<path d="M86.28 47.39H84.11V49.56H86.28V47.39Z" fill="#FFE429"/>
<path d="M88.45 47.39H86.28V49.56H88.45V47.39Z" fill="#FFE429"/>
<path d="M90.61 47.39H88.44V49.56H90.61V47.39Z" fill="#FFE429"/>
<path d="M92.78 47.39H90.61V49.56H92.78V47.39Z" fill="#FFE429"/>
<path d="M94.95 47.39H92.78V49.56H94.95V47.39Z" fill="#FFE52E"/>
<path d="M97.12 47.39H94.95V49.56H97.12V47.39Z" fill="#FFE52E"/>
<path d="M16.8501 49.5601H14.6801V51.7301H16.8501V49.5601Z" fill="#FFE52E"/>
<path d="M19.02 49.5601H16.85V51.7301H19.02V49.5601Z" fill="#FFE52E"/>
<path d="M21.19 49.5601H19.02V51.7301H21.19V49.5601Z" fill="#FFE429"/>
<path d="M23.36 49.5601H21.19V51.7301H23.36V49.5601Z" fill="#FFE429"/>
<path d="M25.53 49.5601H23.36V51.7301H25.53V49.5601Z" fill="#FFE429"/>
<path d="M27.7 49.5601H25.53V51.7301H27.7V49.5601Z" fill="#FFE429"/>
<path d="M29.87 49.5601H27.7V51.7301H29.87V49.5601Z" fill="#FFE429"/>
<path d="M32.0401 49.5601H29.8701V51.7301H32.0401V49.5601Z" fill="#FFE429"/>
<path d="M34.21 49.5601H32.04V51.7301H34.21V49.5601Z" fill="#FFE52E"/>
<path d="M45.06 49.5601H42.89V51.7301H45.06V49.5601Z" fill="#FFE52E"/>
<path d="M47.22 49.5601H45.05V51.7301H47.22V49.5601Z" fill="#2D2511"/>
<path d="M49.39 49.5601H47.22V51.7301H49.39V49.5601Z" fill="#2D2511"/>
<path d="M51.56 49.5601H49.39V51.7301H51.56V49.5601Z" fill="#2D2511"/>
<path d="M53.73 49.5601H51.56V51.7301H53.73V49.5601Z" fill="#FFE52E"/>
<path d="M62.4101 49.5601H60.2401V51.7301H62.4101V49.5601Z" fill="#2D2511"/>
<path d="M64.58 49.5601H62.41V51.7301H64.58V49.5601Z" fill="#FFE429"/>
<path d="M66.75 49.5601H64.58V51.7301H66.75V49.5601Z" fill="#FFE429"/>
<path d="M68.9201 49.5601H66.7501V51.7301H68.9201V49.5601Z" fill="#FFE429"/>
<path d="M71.09 49.5601H68.92V51.7301H71.09V49.5601Z" fill="#FFE429"/>
<path d="M73.26 49.5601H71.09V51.7301H73.26V49.5601Z" fill="#FFE429"/>
<path d="M75.43 49.5601H73.26V51.7301H75.43V49.5601Z" fill="#FFE429"/>
<path d="M77.6001 49.5601H75.4301V51.7301H77.6001V49.5601Z" fill="#FFE429"/>
<path d="M79.77 49.5601H77.6V51.7301H79.77V49.5601Z" fill="#FFE429"/>
<path d="M81.94 49.5601H79.77V51.7301H81.94V49.5601Z" fill="#FFE429"/>
<path d="M84.11 49.5601H81.94V51.7301H84.11V49.5601Z" fill="#FFE429"/>
<path d="M86.28 49.5601H84.11V51.7301H86.28V49.5601Z" fill="#FFE429"/>
<path d="M88.45 49.5601H86.28V51.7301H88.45V49.5601Z" fill="#FFE429"/>
<path d="M90.61 49.5601H88.44V51.7301H90.61V49.5601Z" fill="#FFE429"/>
<path d="M92.78 49.5601H90.61V51.7301H92.78V49.5601Z" fill="#FFE429"/>
<path d="M94.95 49.5601H92.78V51.7301H94.95V49.5601Z" fill="#FFE52E"/>
<path d="M12.51 51.73H10.34V53.9H12.51V51.73Z" fill="#FFE52E"/>
<path d="M14.68 51.73H12.51V53.9H14.68V51.73Z" fill="#FFE429"/>
<path d="M16.8501 51.73H14.6801V53.9H16.8501V51.73Z" fill="#FFE429"/>
<path d="M19.02 51.73H16.85V53.9H19.02V51.73Z" fill="#FFE429"/>
<path d="M21.19 51.73H19.02V53.9H21.19V51.73Z" fill="#FFE429"/>
<path d="M23.36 51.73H21.19V53.9H23.36V51.73Z" fill="#FFE429"/>
<path d="M25.53 51.73H23.36V53.9H25.53V51.73Z" fill="#FFE429"/>
<path d="M27.7 51.73H25.53V53.9H27.7V51.73Z" fill="#FFE429"/>
<path d="M29.87 51.73H27.7V53.9H29.87V51.73Z" fill="#FFE429"/>
<path d="M32.0401 51.73H29.8701V53.9H32.0401V51.73Z" fill="#FFE429"/>
<path d="M34.21 51.73H32.04V53.9H34.21V51.73Z" fill="#FFE52E"/>
<path d="M45.06 51.73H42.89V53.9H45.06V51.73Z" fill="#FFE52E"/>
<path d="M47.22 51.73H45.05V53.9H47.22V51.73Z" fill="#FFE52E"/>
<path d="M49.39 51.73H47.22V53.9H49.39V51.73Z" fill="#2D2511"/>
<path d="M51.56 51.73H49.39V53.9H51.56V51.73Z" fill="#2D2511"/>
<path d="M53.73 51.73H51.56V53.9H53.73V51.73Z" fill="#FFE429"/>
<path d="M55.9 51.73H53.73V53.9H55.9V51.73Z" fill="#FFE429"/>
<path d="M58.07 51.73H55.9V53.9H58.07V51.73Z" fill="#2D2511"/>
<path d="M60.24 51.73H58.07V53.9H60.24V51.73Z" fill="#2D2511"/>
<path d="M62.4101 51.73H60.2401V53.9H62.4101V51.73Z" fill="#FFE429"/>
<path d="M64.58 51.73H62.41V53.9H64.58V51.73Z" fill="#FFE429"/>
<path d="M66.75 51.73H64.58V53.9H66.75V51.73Z" fill="#FFE429"/>
<path d="M68.9201 51.73H66.7501V53.9H68.9201V51.73Z" fill="#FFE429"/>
<path d="M71.09 51.73H68.92V53.9H71.09V51.73Z" fill="#FFE429"/>
<path d="M73.26 51.73H71.09V53.9H73.26V51.73Z" fill="#FFE429"/>
<path d="M75.43 51.73H73.26V53.9H75.43V51.73Z" fill="#FFE429"/>
<path d="M77.6001 51.73H75.4301V53.9H77.6001V51.73Z" fill="#FFE429"/>
<path d="M79.77 51.73H77.6V53.9H79.77V51.73Z" fill="#FFE429"/>
<path d="M81.94 51.73H79.77V53.9H81.94V51.73Z" fill="#FFE429"/>
<path d="M84.11 51.73H81.94V53.9H84.11V51.73Z" fill="#FFE429"/>
<path d="M86.28 51.73H84.11V53.9H86.28V51.73Z" fill="#FFE52E"/>
<path d="M88.45 51.73H86.28V53.9H88.45V51.73Z" fill="#FFE52E"/>
<path d="M90.61 51.73H88.44V53.9H90.61V51.73Z" fill="#FFE52E"/>
<path d="M10.34 53.9H8.17004V56.07H10.34V53.9Z" fill="#FFE52E"/>
<path d="M12.51 53.9H10.34V56.07H12.51V53.9Z" fill="#FFE429"/>
<path d="M14.68 53.9H12.51V56.07H14.68V53.9Z" fill="#FFE429"/>
<path d="M16.8501 53.9H14.6801V56.07H16.8501V53.9Z" fill="#FFE429"/>
<path d="M19.02 53.9H16.85V56.07H19.02V53.9Z" fill="#FFE429"/>
<path d="M21.19 53.9H19.02V56.07H21.19V53.9Z" fill="#FFE429"/>
<path d="M23.36 53.9H21.19V56.07H23.36V53.9Z" fill="#FFE429"/>
<path d="M25.53 53.9H23.36V56.07H25.53V53.9Z" fill="#FFE429"/>
<path d="M27.7 53.9H25.53V56.07H27.7V53.9Z" fill="#FFE429"/>
<path d="M29.87 53.9H27.7V56.07H29.87V53.9Z" fill="#FFE429"/>
<path d="M32.0401 53.9H29.8701V56.07H32.0401V53.9Z" fill="#FFE429"/>
<path d="M34.21 53.9H32.04V56.07H34.21V53.9Z" fill="#FFE429"/>
<path d="M36.38 53.9H34.21V56.07H36.38V53.9Z" fill="#FFE52E"/>
<path d="M38.55 53.9H36.38V56.07H38.55V53.9Z" fill="#2D2511"/>
<path d="M40.72 53.9H38.55V56.07H40.72V53.9Z" fill="#2D2511"/>
<path d="M42.89 53.9H40.72V56.07H42.89V53.9Z" fill="#2D2511"/>
<path d="M45.06 53.9H42.89V56.07H45.06V53.9Z" fill="#FFE429"/>
<path d="M47.22 53.9H45.05V56.07H47.22V53.9Z" fill="#FFE429"/>
<path d="M49.39 53.9H47.22V56.07H49.39V53.9Z" fill="#FFE429"/>
<path d="M51.56 53.9H49.39V56.07H51.56V53.9Z" fill="#FFE429"/>
<path d="M53.73 53.9H51.56V56.07H53.73V53.9Z" fill="#FFE429"/>
<path d="M55.9 53.9H53.73V56.07H55.9V53.9Z" fill="#FFE429"/>
<path d="M58.07 53.9H55.9V56.07H58.07V53.9Z" fill="#FFE429"/>
<path d="M60.24 53.9H58.07V56.07H60.24V53.9Z" fill="#FFE429"/>
<path d="M62.4101 53.9H60.2401V56.07H62.4101V53.9Z" fill="#FFE429"/>
<path d="M64.58 53.9H62.41V56.07H64.58V53.9Z" fill="#FFE429"/>
<path d="M66.75 53.9H64.58V56.07H66.75V53.9Z" fill="#FFE429"/>
<path d="M68.9201 53.9H66.7501V56.07H68.9201V53.9Z" fill="#FFE429"/>
<path d="M71.09 53.9H68.92V56.07H71.09V53.9Z" fill="#FFE429"/>
<path d="M73.26 53.9H71.09V56.07H73.26V53.9Z" fill="#FFE429"/>
<path d="M75.43 53.9H73.26V56.07H75.43V53.9Z" fill="#FFE429"/>
<path d="M77.6001 53.9H75.4301V56.07H77.6001V53.9Z" fill="#FFE429"/>
<path d="M79.77 53.9H77.6V56.07H79.77V53.9Z" fill="#FFE52E"/>
<path d="M81.94 53.9H79.77V56.07H81.94V53.9Z" fill="#FFE52E"/>
<path d="M6.00002 56.0701H3.83002V58.2401H6.00002V56.0701Z" fill="#FFE52E"/>
<path d="M8.17006 56.0701H6.00006V58.2401H8.17006V56.0701Z" fill="#FFE429"/>
<path d="M10.34 56.0701H8.17004V58.2401H10.34V56.0701Z" fill="#FFE429"/>
<path d="M12.51 56.0701H10.34V58.2401H12.51V56.0701Z" fill="#FFE429"/>
<path d="M14.68 56.0701H12.51V58.2401H14.68V56.0701Z" fill="#FFE429"/>
<path d="M16.8501 56.0701H14.6801V58.2401H16.8501V56.0701Z" fill="#FFE429"/>
<path d="M19.02 56.0701H16.85V58.2401H19.02V56.0701Z" fill="#FFE429"/>
<path d="M21.19 56.0701H19.02V58.2401H21.19V56.0701Z" fill="#FFE429"/>
<path d="M23.36 56.0701H21.19V58.2401H23.36V56.0701Z" fill="#FFE429"/>
<path d="M25.53 56.0701H23.36V58.2401H25.53V56.0701Z" fill="#FFE429"/>
<path d="M27.7 56.0701H25.53V58.2401H27.7V56.0701Z" fill="#FFE429"/>
<path d="M29.87 56.0701H27.7V58.2401H29.87V56.0701Z" fill="#FFE429"/>
<path d="M32.0401 56.0701H29.8701V58.2401H32.0401V56.0701Z" fill="#FFE429"/>
<path d="M34.21 56.0701H32.04V58.2401H34.21V56.0701Z" fill="#FFE429"/>
<path d="M36.38 56.0701H34.21V58.2401H36.38V56.0701Z" fill="#FFE429"/>
<path d="M38.55 56.0701H36.38V58.2401H38.55V56.0701Z" fill="#FFE429"/>
<path d="M40.72 56.0701H38.55V58.2401H40.72V56.0701Z" fill="#FFE429"/>
<path d="M42.89 56.0701H40.72V58.2401H42.89V56.0701Z" fill="#FFE429"/>
<path d="M45.06 56.0701H42.89V58.2401H45.06V56.0701Z" fill="#FFE429"/>
<path d="M47.22 56.0701H45.05V58.2401H47.22V56.0701Z" fill="#FFE429"/>
<path d="M49.39 56.0701H47.22V58.2401H49.39V56.0701Z" fill="#FFE429"/>
<path d="M51.56 56.0701H49.39V58.2401H51.56V56.0701Z" fill="#FFE429"/>
<path d="M53.73 56.0701H51.56V58.2401H53.73V56.0701Z" fill="#FFE429"/>
<path d="M55.9 56.0701H53.73V58.2401H55.9V56.0701Z" fill="#FFE429"/>
<path d="M58.07 56.0701H55.9V58.2401H58.07V56.0701Z" fill="#FFE429"/>
<path d="M60.24 56.0701H58.07V58.2401H60.24V56.0701Z" fill="#FFE429"/>
<path d="M62.4101 56.0701H60.2401V58.2401H62.4101V56.0701Z" fill="#FFE429"/>
<path d="M64.58 56.0701H62.41V58.2401H64.58V56.0701Z" fill="#FFE429"/>
<path d="M66.75 56.0701H64.58V58.2401H66.75V56.0701Z" fill="#FFE429"/>
<path d="M68.9201 56.0701H66.7501V58.2401H68.9201V56.0701Z" fill="#FFE429"/>
<path d="M71.09 56.0701H68.92V58.2401H71.09V56.0701Z" fill="#FFE429"/>
<path d="M73.26 56.0701H71.09V58.2401H73.26V56.0701Z" fill="#FFE52E"/>
<path d="M6.00002 58.24H3.83002V60.41H6.00002V58.24Z" fill="#FFE52E"/>
<path d="M8.17006 58.24H6.00006V60.41H8.17006V58.24Z" fill="#FFE429"/>
<path d="M10.34 58.24H8.17004V60.41H10.34V58.24Z" fill="#FFE429"/>
<path d="M12.51 58.24H10.34V60.41H12.51V58.24Z" fill="#FFE429"/>
<path d="M14.68 58.24H12.51V60.41H14.68V58.24Z" fill="#FFE429"/>
<path d="M16.8501 58.24H14.6801V60.41H16.8501V58.24Z" fill="#FFE429"/>
<path d="M19.02 58.24H16.85V60.41H19.02V58.24Z" fill="#FFE429"/>
<path d="M21.19 58.24H19.02V60.41H21.19V58.24Z" fill="#FFE429"/>
<path d="M23.36 58.24H21.19V60.41H23.36V58.24Z" fill="#FFE429"/>
<path d="M25.53 58.24H23.36V60.41H25.53V58.24Z" fill="#FFE429"/>
<path d="M27.7 58.24H25.53V60.41H27.7V58.24Z" fill="#FFE429"/>
<path d="M29.87 58.24H27.7V60.41H29.87V58.24Z" fill="#FFE429"/>
<path d="M32.0401 58.24H29.8701V60.41H32.0401V58.24Z" fill="#FFE429"/>
<path d="M34.21 58.24H32.04V60.41H34.21V58.24Z" fill="#FFE429"/>
<path d="M36.38 58.24H34.21V60.41H36.38V58.24Z" fill="#FFE429"/>
<path d="M38.55 58.24H36.38V60.41H38.55V58.24Z" fill="#FFE429"/>
<path d="M40.72 58.24H38.55V60.41H40.72V58.24Z" fill="#FFE429"/>
<path d="M42.89 58.24H40.72V60.41H42.89V58.24Z" fill="#FFE429"/>
<path d="M45.06 58.24H42.89V60.41H45.06V58.24Z" fill="#FFE429"/>
<path d="M47.22 58.24H45.05V60.41H47.22V58.24Z" fill="#FFE429"/>
<path d="M49.39 58.24H47.22V60.41H49.39V58.24Z" fill="#FFE429"/>
<path d="M51.56 58.24H49.39V60.41H51.56V58.24Z" fill="#FFE429"/>
<path d="M53.73 58.24H51.56V60.41H53.73V58.24Z" fill="#FFE429"/>
<path d="M55.9 58.24H53.73V60.41H55.9V58.24Z" fill="#FFE429"/>
<path d="M58.07 58.24H55.9V60.41H58.07V58.24Z" fill="#FFE429"/>
<path d="M60.24 58.24H58.07V60.41H60.24V58.24Z" fill="#FFE429"/>
<path d="M62.4101 58.24H60.2401V60.41H62.4101V58.24Z" fill="#FFE429"/>
<path d="M64.58 58.24H62.41V60.41H64.58V58.24Z" fill="#FFE429"/>
<path d="M66.75 58.24H64.58V60.41H66.75V58.24Z" fill="#FFE429"/>
<path d="M68.9201 58.24H66.7501V60.41H68.9201V58.24Z" fill="#FFE429"/>
<path d="M71.09 58.24H68.92V60.41H71.09V58.24Z" fill="#FFE429"/>
<path d="M73.26 58.24H71.09V60.41H73.26V58.24Z" fill="#FFE429"/>
<path d="M75.43 58.24H73.26V60.41H75.43V58.24Z" fill="#FFE52E"/>
<path d="M6.00002 60.41H3.83002V62.58H6.00002V60.41Z" fill="#FFE52E"/>
<path d="M8.17006 60.41H6.00006V62.58H8.17006V60.41Z" fill="#FFE52E"/>
<path d="M10.34 60.41H8.17004V62.58H10.34V60.41Z" fill="#FFE52E"/>
<path d="M12.51 60.41H10.34V62.58H12.51V60.41Z" fill="#FFE52E"/>
<path d="M14.68 60.41H12.51V62.58H14.68V60.41Z" fill="#FFE52E"/>
<path d="M16.8501 60.41H14.6801V62.58H16.8501V60.41Z" fill="#FFE52E"/>
<path d="M19.02 60.41H16.85V62.58H19.02V60.41Z" fill="#FFE52E"/>
<path d="M21.19 60.41H19.02V62.58H21.19V60.41Z" fill="#FFE52E"/>
<path d="M32.0401 60.41H29.8701V62.58H32.0401V60.41Z" fill="#FFE52E"/>
<path d="M34.21 60.41H32.04V62.58H34.21V60.41Z" fill="#FFE429"/>
<path d="M36.38 60.41H34.21V62.58H36.38V60.41Z" fill="#FFE429"/>
<path d="M38.55 60.41H36.38V62.58H38.55V60.41Z" fill="#FFE429"/>
<path d="M40.72 60.41H38.55V62.58H40.72V60.41Z" fill="#FFE429"/>
<path d="M42.89 60.41H40.72V62.58H42.89V60.41Z" fill="#FFE429"/>
<path d="M45.06 60.41H42.89V62.58H45.06V60.41Z" fill="#FFE429"/>
<path d="M47.22 60.41H45.05V62.58H47.22V60.41Z" fill="#FFE429"/>
<path d="M49.39 60.41H47.22V62.58H49.39V60.41Z" fill="#FFE429"/>
<path d="M51.56 60.41H49.39V62.58H51.56V60.41Z" fill="#FFE429"/>
<path d="M53.73 60.41H51.56V62.58H53.73V60.41Z" fill="#FFE429"/>
<path d="M55.9 60.41H53.73V62.58H55.9V60.41Z" fill="#FFE429"/>
<path d="M58.07 60.41H55.9V62.58H58.07V60.41Z" fill="#FFE429"/>
<path d="M60.24 60.41H58.07V62.58H60.24V60.41Z" fill="#FFE429"/>
<path d="M62.4101 60.41H60.2401V62.58H62.4101V60.41Z" fill="#FFE429"/>
<path d="M64.58 60.41H62.41V62.58H64.58V60.41Z" fill="#FFE429"/>
<path d="M66.75 60.41H64.58V62.58H66.75V60.41Z" fill="#FFE429"/>
<path d="M68.9201 60.41H66.7501V62.58H68.9201V60.41Z" fill="#FFE429"/>
<path d="M71.09 60.41H68.92V62.58H71.09V60.41Z" fill="#FFE429"/>
<path d="M73.26 60.41H71.09V62.58H73.26V60.41Z" fill="#FFE429"/>
<path d="M75.43 60.41H73.26V62.58H75.43V60.41Z" fill="#FFE429"/>
<path d="M77.6001 60.41H75.4301V62.58H77.6001V60.41Z" fill="#FFE52E"/>
<path d="M32.0401 62.58H29.8701V64.75H32.0401V62.58Z" fill="#FFE52E"/>
<path d="M34.21 62.58H32.04V64.75H34.21V62.58Z" fill="#FFE429"/>
<path d="M36.38 62.58H34.21V64.75H36.38V62.58Z" fill="#FFE429"/>
<path d="M38.55 62.58H36.38V64.75H38.55V62.58Z" fill="#FFE429"/>
<path d="M40.72 62.58H38.55V64.75H40.72V62.58Z" fill="#FFE429"/>
<path d="M42.89 62.58H40.72V64.75H42.89V62.58Z" fill="#FFE429"/>
<path d="M45.06 62.58H42.89V64.75H45.06V62.58Z" fill="#FFE429"/>
<path d="M47.22 62.58H45.05V64.75H47.22V62.58Z" fill="#FFE429"/>
<path d="M49.39 62.58H47.22V64.75H49.39V62.58Z" fill="#FFE429"/>
<path d="M51.56 62.58H49.39V64.75H51.56V62.58Z" fill="#FFE429"/>
<path d="M53.73 62.58H51.56V64.75H53.73V62.58Z" fill="#FFE429"/>
<path d="M55.9 62.58H53.73V64.75H55.9V62.58Z" fill="#FFE429"/>
<path d="M58.07 62.58H55.9V64.75H58.07V62.58Z" fill="#FFE429"/>
<path d="M60.24 62.58H58.07V64.75H60.24V62.58Z" fill="#FFE429"/>
<path d="M62.4101 62.58H60.2401V64.75H62.4101V62.58Z" fill="#FFE429"/>
<path d="M64.58 62.58H62.41V64.75H64.58V62.58Z" fill="#FFE429"/>
<path d="M66.75 62.58H64.58V64.75H66.75V62.58Z" fill="#FFE429"/>
<path d="M68.9201 62.58H66.7501V64.75H68.9201V62.58Z" fill="#FFE429"/>
<path d="M71.09 62.58H68.92V64.75H71.09V62.58Z" fill="#FFE429"/>
<path d="M73.26 62.58H71.09V64.75H73.26V62.58Z" fill="#FFE429"/>
<path d="M75.43 62.58H73.26V64.75H75.43V62.58Z" fill="#FFE429"/>
<path d="M77.6001 62.58H75.4301V64.75H77.6001V62.58Z" fill="#FFE52E"/>
<path d="M32.0401 64.75H29.8701V66.92H32.0401V64.75Z" fill="#FFE429"/>
<path d="M34.21 64.75H32.04V66.92H34.21V64.75Z" fill="#FFE429"/>
<path d="M36.38 64.75H34.21V66.92H36.38V64.75Z" fill="#FFE429"/>
<path d="M38.55 64.75H36.38V66.92H38.55V64.75Z" fill="#FFE429"/>
<path d="M40.72 64.75H38.55V66.92H40.72V64.75Z" fill="#FFE429"/>
<path d="M42.89 64.75H40.72V66.92H42.89V64.75Z" fill="#FFE429"/>
<path d="M45.06 64.75H42.89V66.92H45.06V64.75Z" fill="#FFE429"/>
<path d="M47.22 64.75H45.05V66.92H47.22V64.75Z" fill="#FFE429"/>
<path d="M49.39 64.75H47.22V66.92H49.39V64.75Z" fill="#FFE429"/>
<path d="M51.56 64.75H49.39V66.92H51.56V64.75Z" fill="#FFE429"/>
<path d="M53.73 64.75H51.56V66.92H53.73V64.75Z" fill="#FFE429"/>
<path d="M55.9 64.75H53.73V66.92H55.9V64.75Z" fill="#FFE429"/>
<path d="M58.07 64.75H55.9V66.92H58.07V64.75Z" fill="#FFE429"/>
<path d="M60.24 64.75H58.07V66.92H60.24V64.75Z" fill="#FFE429"/>
<path d="M62.4101 64.75H60.2401V66.92H62.4101V64.75Z" fill="#FFE429"/>
<path d="M64.58 64.75H62.41V66.92H64.58V64.75Z" fill="#FFE429"/>
<path d="M66.75 64.75H64.58V66.92H66.75V64.75Z" fill="#FFE429"/>
<path d="M68.9201 64.75H66.7501V66.92H68.9201V64.75Z" fill="#FFE429"/>
<path d="M71.09 64.75H68.92V66.92H71.09V64.75Z" fill="#FFE429"/>
<path d="M73.26 64.75H71.09V66.92H73.26V64.75Z" fill="#FFE429"/>
<path d="M75.43 64.75H73.26V66.92H75.43V64.75Z" fill="#FFE429"/>
<path d="M77.6001 64.75H75.4301V66.92H77.6001V64.75Z" fill="#FFE429"/>
<path d="M79.77 64.75H77.6V66.92H79.77V64.75Z" fill="#FFE52E"/>
<path d="M29.87 66.92H27.7V69.09H29.87V66.92Z" fill="#FFE52E"/>
<path d="M32.0401 66.92H29.8701V69.09H32.0401V66.92Z" fill="#FFE429"/>
<path d="M34.21 66.92H32.04V69.09H34.21V66.92Z" fill="#FFE429"/>
<path d="M36.38 66.92H34.21V69.09H36.38V66.92Z" fill="#FFE429"/>
<path d="M38.55 66.92H36.38V69.09H38.55V66.92Z" fill="#FFE429"/>
<path d="M40.72 66.92H38.55V69.09H40.72V66.92Z" fill="#FFE429"/>
<path d="M42.89 66.92H40.72V69.09H42.89V66.92Z" fill="#FFE429"/>
<path d="M45.06 66.92H42.89V69.09H45.06V66.92Z" fill="#FFE429"/>
<path d="M47.22 66.92H45.05V69.09H47.22V66.92Z" fill="#FFE429"/>
<path d="M49.39 66.92H47.22V69.09H49.39V66.92Z" fill="#FFE429"/>
<path d="M51.56 66.92H49.39V69.09H51.56V66.92Z" fill="#FFE429"/>
<path d="M53.73 66.92H51.56V69.09H53.73V66.92Z" fill="#FFE429"/>
<path d="M55.9 66.92H53.73V69.09H55.9V66.92Z" fill="#FFE429"/>
<path d="M58.07 66.92H55.9V69.09H58.07V66.92Z" fill="#FFE429"/>
<path d="M60.24 66.92H58.07V69.09H60.24V66.92Z" fill="#FFE429"/>
<path d="M62.4101 66.92H60.2401V69.09H62.4101V66.92Z" fill="#FFE429"/>
<path d="M64.58 66.92H62.41V69.09H64.58V66.92Z" fill="#FFE429"/>
<path d="M66.75 66.92H64.58V69.09H66.75V66.92Z" fill="#FFE429"/>
<path d="M68.9201 66.92H66.7501V69.09H68.9201V66.92Z" fill="#FFE429"/>
<path d="M71.09 66.92H68.92V69.09H71.09V66.92Z" fill="#FFE429"/>
<path d="M73.26 66.92H71.09V69.09H73.26V66.92Z" fill="#FFE429"/>
<path d="M75.43 66.92H73.26V69.09H75.43V66.92Z" fill="#FFE429"/>
<path d="M77.6001 66.92H75.4301V69.09H77.6001V66.92Z" fill="#FFE429"/>
<path d="M79.77 66.92H77.6V69.09H79.77V66.92Z" fill="#FFE429"/>
<path d="M81.94 66.92H79.77V69.09H81.94V66.92Z" fill="#FFE52E"/>
<path d="M29.87 69.09H27.7V71.26H29.87V69.09Z" fill="#FFE429"/>
<path d="M32.0401 69.09H29.8701V71.26H32.0401V69.09Z" fill="#FFE429"/>
<path d="M34.21 69.09H32.04V71.26H34.21V69.09Z" fill="#FFE429"/>
<path d="M36.38 69.09H34.21V71.26H36.38V69.09Z" fill="#FFE429"/>
<path d="M38.55 69.09H36.38V71.26H38.55V69.09Z" fill="#FFE429"/>
<path d="M40.72 69.09H38.55V71.26H40.72V69.09Z" fill="#FFE429"/>
<path d="M42.89 69.09H40.72V71.26H42.89V69.09Z" fill="#FFE429"/>
<path d="M45.06 69.09H42.89V71.26H45.06V69.09Z" fill="#FFE429"/>
<path d="M47.22 69.09H45.05V71.26H47.22V69.09Z" fill="#FFE429"/>
<path d="M49.39 69.09H47.22V71.26H49.39V69.09Z" fill="#FFE429"/>
<path d="M51.56 69.09H49.39V71.26H51.56V69.09Z" fill="#FFE429"/>
<path d="M53.73 69.09H51.56V71.26H53.73V69.09Z" fill="#FFE429"/>
<path d="M55.9 69.09H53.73V71.26H55.9V69.09Z" fill="#FFE429"/>
<path d="M58.07 69.09H55.9V71.26H58.07V69.09Z" fill="#FFE429"/>
<path d="M60.24 69.09H58.07V71.26H60.24V69.09Z" fill="#FFE429"/>
<path d="M62.4101 69.09H60.2401V71.26H62.4101V69.09Z" fill="#FFE52E"/>
<path d="M64.58 69.09H62.41V71.26H64.58V69.09Z" fill="#FFE52E"/>
<path d="M66.75 69.09H64.58V71.26H66.75V69.09Z" fill="#FFE429"/>
<path d="M68.9201 69.09H66.7501V71.26H68.9201V69.09Z" fill="#FFE429"/>
<path d="M71.09 69.09H68.92V71.26H71.09V69.09Z" fill="#FFE429"/>
<path d="M73.26 69.09H71.09V71.26H73.26V69.09Z" fill="#FFE429"/>
<path d="M75.43 69.09H73.26V71.26H75.43V69.09Z" fill="#FFE429"/>
<path d="M77.6001 69.09H75.4301V71.26H77.6001V69.09Z" fill="#FFE429"/>
<path d="M79.77 69.09H77.6V71.26H79.77V69.09Z" fill="#FFE429"/>
<path d="M81.94 69.09H79.77V71.26H81.94V69.09Z" fill="#FFE52E"/>
<path d="M27.7 71.26H25.53V73.43H27.7V71.26Z" fill="#FFE52E"/>
<path d="M29.87 71.26H27.7V73.43H29.87V71.26Z" fill="#FFE429"/>
<path d="M32.0401 71.26H29.8701V73.43H32.0401V71.26Z" fill="#FFE429"/>
<path d="M34.21 71.26H32.04V73.43H34.21V71.26Z" fill="#FFE429"/>
<path d="M36.38 71.26H34.21V73.43H36.38V71.26Z" fill="#FFE429"/>
<path d="M38.55 71.26H36.38V73.43H38.55V71.26Z" fill="#FFE429"/>
<path d="M40.72 71.26H38.55V73.43H40.72V71.26Z" fill="#FFE429"/>
<path d="M42.89 71.26H40.72V73.43H42.89V71.26Z" fill="#FFE429"/>
<path d="M45.06 71.26H42.89V73.43H45.06V71.26Z" fill="#FFE429"/>
<path d="M47.22 71.26H45.05V73.43H47.22V71.26Z" fill="#FFE429"/>
<path d="M49.39 71.26H47.22V73.43H49.39V71.26Z" fill="#FFE429"/>
<path d="M51.56 71.26H49.39V73.43H51.56V71.26Z" fill="#FFE429"/>
<path d="M53.73 71.26H51.56V73.43H53.73V71.26Z" fill="#FFE429"/>
<path d="M55.9 71.26H53.73V73.43H55.9V71.26Z" fill="#FFE429"/>
<path d="M58.07 71.26H55.9V73.43H58.07V71.26Z" fill="#FFE429"/>
<path d="M60.24 71.26H58.07V73.43H60.24V71.26Z" fill="#FFE429"/>
<path d="M62.4101 71.26H60.2401V73.43H62.4101V71.26Z" fill="#FFE52E"/>
<path d="M68.9201 71.26H66.7501V73.43H68.9201V71.26Z" fill="#FFE52E"/>
<path d="M71.09 71.26H68.92V73.43H71.09V71.26Z" fill="#FFE52E"/>
<path d="M73.26 71.26H71.09V73.43H73.26V71.26Z" fill="#FFE429"/>
<path d="M75.43 71.26H73.26V73.43H75.43V71.26Z" fill="#FFE429"/>
<path d="M77.6001 71.26H75.4301V73.43H77.6001V71.26Z" fill="#FFE429"/>
<path d="M79.77 71.26H77.6V73.43H79.77V71.26Z" fill="#FFE429"/>
<path d="M81.94 71.26H79.77V73.43H81.94V71.26Z" fill="#FFE429"/>
<path d="M84.11 71.26H81.94V73.43H84.11V71.26Z" fill="#FFE429"/>
<path d="M27.7 73.4301H25.53V75.6001H27.7V73.4301Z" fill="#FFE52E"/>
<path d="M29.87 73.4301H27.7V75.6001H29.87V73.4301Z" fill="#FFE429"/>
<path d="M32.0401 73.4301H29.8701V75.6001H32.0401V73.4301Z" fill="#FFE429"/>
<path d="M34.21 73.4301H32.04V75.6001H34.21V73.4301Z" fill="#FFE429"/>
<path d="M36.38 73.4301H34.21V75.6001H36.38V73.4301Z" fill="#FFE429"/>
<path d="M38.55 73.4301H36.38V75.6001H38.55V73.4301Z" fill="#FFE429"/>
<path d="M40.72 73.4301H38.55V75.6001H40.72V73.4301Z" fill="#FFE429"/>
<path d="M42.89 73.4301H40.72V75.6001H42.89V73.4301Z" fill="#FFE429"/>
<path d="M45.06 73.4301H42.89V75.6001H45.06V73.4301Z" fill="#FFE429"/>
<path d="M47.22 73.4301H45.05V75.6001H47.22V73.4301Z" fill="#FFE429"/>
<path d="M49.39 73.4301H47.22V75.6001H49.39V73.4301Z" fill="#FFE429"/>
<path d="M51.56 73.4301H49.39V75.6001H51.56V73.4301Z" fill="#FFE429"/>
<path d="M53.73 73.4301H51.56V75.6001H53.73V73.4301Z" fill="#FFE429"/>
<path d="M55.9 73.4301H53.73V75.6001H55.9V73.4301Z" fill="#FFE429"/>
<path d="M58.07 73.4301H55.9V75.6001H58.07V73.4301Z" fill="#FFE429"/>
<path d="M60.24 73.4301H58.07V75.6001H60.24V73.4301Z" fill="#FFE429"/>
<path d="M62.4101 73.4301H60.2401V75.6001H62.4101V73.4301Z" fill="#FFE52E"/>
<path d="M75.43 73.4301H73.26V75.6001H75.43V73.4301Z" fill="#FFE52E"/>
<path d="M77.6001 73.4301H75.4301V75.6001H77.6001V73.4301Z" fill="#FFE429"/>
<path d="M79.77 73.4301H77.6V75.6001H79.77V73.4301Z" fill="#FFE429"/>
<path d="M81.94 73.4301H79.77V75.6001H81.94V73.4301Z" fill="#FFE429"/>
<path d="M84.11 73.4301H81.94V75.6001H84.11V73.4301Z" fill="#FFE52E"/>
<path d="M27.7 75.6H25.53V77.77H27.7V75.6Z" fill="#FFE52E"/>
<path d="M29.87 75.6H27.7V77.77H29.87V75.6Z" fill="#FFE429"/>
<path d="M32.0401 75.6H29.8701V77.77H32.0401V75.6Z" fill="#FFE429"/>
<path d="M34.21 75.6H32.04V77.77H34.21V75.6Z" fill="#FFE429"/>
<path d="M36.38 75.6H34.21V77.77H36.38V75.6Z" fill="#FFE429"/>
<path d="M38.55 75.6H36.38V77.77H38.55V75.6Z" fill="#FFE429"/>
<path d="M40.72 75.6H38.55V77.77H40.72V75.6Z" fill="#FFE429"/>
<path d="M42.89 75.6H40.72V77.77H42.89V75.6Z" fill="#FFE429"/>
<path d="M45.06 75.6H42.89V77.77H45.06V75.6Z" fill="#FFE429"/>
<path d="M47.22 75.6H45.05V77.77H47.22V75.6Z" fill="#FFE52E"/>
<path d="M49.39 75.6H47.22V77.77H49.39V75.6Z" fill="#FFE52E"/>
<path d="M51.56 75.6H49.39V77.77H51.56V75.6Z" fill="#FFE429"/>
<path d="M53.73 75.6H51.56V77.77H53.73V75.6Z" fill="#FFE429"/>
<path d="M55.9 75.6H53.73V77.77H55.9V75.6Z" fill="#FFE429"/>
<path d="M58.07 75.6H55.9V77.77H58.07V75.6Z" fill="#FFE429"/>
<path d="M60.24 75.6H58.07V77.77H60.24V75.6Z" fill="#FFE429"/>
<path d="M62.4101 75.6H60.2401V77.77H62.4101V75.6Z" fill="#FFE52E"/>
<path d="M79.77 75.6H77.6V77.77H79.77V75.6Z" fill="#FFE52E"/>
<path d="M81.94 75.6H79.77V77.77H81.94V75.6Z" fill="#FFE52E"/>
<path d="M84.11 75.6H81.94V77.77H84.11V75.6Z" fill="#FFE429"/>
<path d="M86.28 75.6H84.11V77.77H86.28V75.6Z" fill="#FFE52E"/>
<path d="M27.7 77.77H25.53V79.94H27.7V77.77Z" fill="#FFE429"/>
<path d="M29.87 77.77H27.7V79.94H29.87V77.77Z" fill="#FFE429"/>
<path d="M32.0401 77.77H29.8701V79.94H32.0401V77.77Z" fill="#FFE429"/>
<path d="M34.21 77.77H32.04V79.94H34.21V77.77Z" fill="#FFE429"/>
<path d="M36.38 77.77H34.21V79.94H36.38V77.77Z" fill="#FFE429"/>
<path d="M38.55 77.77H36.38V79.94H38.55V77.77Z" fill="#FFE429"/>
<path d="M40.72 77.77H38.55V79.94H40.72V77.77Z" fill="#FFE429"/>
<path d="M42.89 77.77H40.72V79.94H42.89V77.77Z" fill="#FFE52E"/>
<path d="M51.56 77.77H49.39V79.94H51.56V77.77Z" fill="#FFE429"/>
<path d="M53.73 77.77H51.56V79.94H53.73V77.77Z" fill="#FFE429"/>
<path d="M55.9 77.77H53.73V79.94H55.9V77.77Z" fill="#FFE429"/>
<path d="M58.07 77.77H55.9V79.94H58.07V77.77Z" fill="#FFE429"/>
<path d="M60.24 77.77H58.07V79.94H60.24V77.77Z" fill="#FFE429"/>
<path d="M62.4101 77.77H60.2401V79.94H62.4101V77.77Z" fill="#FFE52E"/>
<path d="M25.53 79.9401H23.36V82.1101H25.53V79.9401Z" fill="#FFE52E"/>
<path d="M27.7 79.9401H25.53V82.1101H27.7V79.9401Z" fill="#FFE429"/>
<path d="M29.87 79.9401H27.7V82.1101H29.87V79.9401Z" fill="#FFE429"/>
<path d="M32.0401 79.9401H29.8701V82.1101H32.0401V79.9401Z" fill="#FFE429"/>
<path d="M34.21 79.9401H32.04V82.1101H34.21V79.9401Z" fill="#FFE429"/>
<path d="M36.38 79.9401H34.21V82.1101H36.38V79.9401Z" fill="#FFE429"/>
<path d="M38.55 79.9401H36.38V82.1101H38.55V79.9401Z" fill="#FFE429"/>
<path d="M40.72 79.9401H38.55V82.1101H40.72V79.9401Z" fill="#FFE52E"/>
<path d="M51.56 79.9401H49.39V82.1101H51.56V79.9401Z" fill="#FFE52E"/>
<path d="M53.73 79.9401H51.56V82.1101H53.73V79.9401Z" fill="#FFE429"/>
<path d="M55.9 79.9401H53.73V82.1101H55.9V79.9401Z" fill="#FFE429"/>
<path d="M58.07 79.9401H55.9V82.1101H58.07V79.9401Z" fill="#FFE429"/>
<path d="M60.24 79.9401H58.07V82.1101H60.24V79.9401Z" fill="#FFE429"/>
<path d="M62.4101 79.9401H60.2401V82.1101H62.4101V79.9401Z" fill="#FFE52E"/>
<path d="M25.53 82.11H23.36V84.28H25.53V82.11Z" fill="#FFE52E"/>
<path d="M27.7 82.11H25.53V84.28H27.7V82.11Z" fill="#FFE52E"/>
<path d="M29.87 82.11H27.7V84.28H29.87V82.11Z" fill="#FFE429"/>
<path d="M32.0401 82.11H29.8701V84.28H32.0401V82.11Z" fill="#FFE429"/>
<path d="M34.21 82.11H32.04V84.28H34.21V82.11Z" fill="#FFE429"/>
<path d="M36.38 82.11H34.21V84.28H36.38V82.11Z" fill="#FFE429"/>
<path d="M38.55 82.11H36.38V84.28H38.55V82.11Z" fill="#FFE52E"/>
<path d="M51.56 82.11H49.39V84.28H51.56V82.11Z" fill="#FFE52E"/>
<path d="M53.73 82.11H51.56V84.28H53.73V82.11Z" fill="#FFE429"/>
<path d="M55.9 82.11H53.73V84.28H55.9V82.11Z" fill="#FFE429"/>
<path d="M58.07 82.11H55.9V84.28H58.07V82.11Z" fill="#FFE429"/>
<path d="M60.24 82.11H58.07V84.28H60.24V82.11Z" fill="#FFE429"/>
<path d="M62.4101 82.11H60.2401V84.28H62.4101V82.11Z" fill="#FFE52E"/>
<path d="M25.53 84.28H23.36V86.45H25.53V84.28Z" fill="#FFE52E"/>
<path d="M27.7 84.28H25.53V86.45H27.7V84.28Z" fill="#FFE429"/>
<path d="M29.87 84.28H27.7V86.45H29.87V84.28Z" fill="#FFE429"/>
<path d="M32.0401 84.28H29.8701V86.45H32.0401V84.28Z" fill="#FFE429"/>
<path d="M34.21 84.28H32.04V86.45H34.21V84.28Z" fill="#FFE52E"/>
<path d="M53.73 84.28H51.56V86.45H53.73V84.28Z" fill="#FFE429"/>
<path d="M55.9 84.28H53.73V86.45H55.9V84.28Z" fill="#FFE429"/>
<path d="M58.07 84.28H55.9V86.45H58.07V84.28Z" fill="#FFE429"/>
<path d="M60.24 84.28H58.07V86.45H60.24V84.28Z" fill="#FFE429"/>
<path d="M27.7 86.4501H25.53V88.6201H27.7V86.4501Z" fill="#FFE52E"/>
<path d="M29.87 86.4501H27.7V88.6201H29.87V86.4501Z" fill="#FFE52E"/>
<path d="M53.73 86.4501H51.56V88.6201H53.73V86.4501Z" fill="#FFE52E"/>
<path d="M55.9 86.4501H53.73V88.6201H55.9V86.4501Z" fill="#FFE429"/>
<path d="M58.07 86.4501H55.9V88.6201H58.07V86.4501Z" fill="#FFE429"/>
<path d="M60.24 86.4501H58.07V88.6201H60.24V86.4501Z" fill="#FFE429"/>
<path d="M55.9 88.61H53.73V90.78H55.9V88.61Z" fill="#FFE52E"/>
<path d="M58.07 88.61H55.9V90.78H58.07V88.61Z" fill="#FFE429"/>
<path d="M60.24 88.61H58.07V90.78H60.24V88.61Z" fill="#FFE52E"/>
<path d="M58.07 90.78H55.9V92.95H58.07V90.78Z" fill="#FFE52E"/>
</svg>
